<svg id="Group_74754" data-name="Group 74754" xmlns="http://www.w3.org/2000/svg" width="114.81" height="123.94" viewBox="0 0 114.81 123.94">
  <g id="Group_74749" data-name="Group 74749" transform="translate(68.93 92.776)">
    <g id="Group_74748" data-name="Group 74748">
      <path id="Path_754" data-name="Path 754" d="M291.431,425.225a2.324,2.324,0,0,1-1.561.96,2.39,2.39,0,0,1-1.681-.336,2.11,2.11,0,0,1-.936-1.369,2.082,2.082,0,0,1,.312-1.633l7.155-13.206h-7.035a2.16,2.16,0,0,1-1.537-.624,2.081,2.081,0,0,1-.648-1.585,2.235,2.235,0,0,1,.648-1.585,2.126,2.126,0,0,1,1.537-.648h10.9a2.321,2.321,0,0,1,1.129.36,2.411,2.411,0,0,1,.792.84,2.035,2.035,0,0,1,.288,1.032,3.516,3.516,0,0,1-.36,1.345Z" transform="translate(-285.5 -400.305)" fill="#35db88" stroke="#fff" stroke-miterlimit="10" stroke-width="1"/>
      <path id="Path_755" data-name="Path 755" d="M353.862,384.93a2.028,2.028,0,0,1,1.273,1.08,2.169,2.169,0,0,1,.168,1.681l-5.258,16.567a2.028,2.028,0,0,1-1.08,1.273,2.17,2.17,0,0,1-1.681.168,2.091,2.091,0,0,1-1.321-1.056,2.256,2.256,0,0,1-.168-1.729l5.258-16.543a2.089,2.089,0,0,1,1.1-1.321A2.224,2.224,0,0,1,353.862,384.93Z" transform="translate(-331.244 -384.813)" fill="#35db88" stroke="#fff" stroke-miterlimit="10" stroke-width="1"/>
      <path id="Path_756" data-name="Path 756" d="M397.631,425.225a2.324,2.324,0,0,1-1.561.96,2.39,2.39,0,0,1-1.681-.336,2.11,2.11,0,0,1-.936-1.369,2.082,2.082,0,0,1,.312-1.633l7.155-13.206h-7.035a2.16,2.16,0,0,1-1.537-.624,2.081,2.081,0,0,1-.648-1.585,2.235,2.235,0,0,1,.648-1.585,2.126,2.126,0,0,1,1.537-.648h10.9a2.321,2.321,0,0,1,1.129.36,2.411,2.411,0,0,1,.792.84,2.035,2.035,0,0,1,.288,1.032,3.516,3.516,0,0,1-.36,1.345Z" transform="translate(-366.201 -400.305)" fill="#35db88" stroke="#fff" stroke-miterlimit="10" stroke-width="1"/>
    </g>
  </g>
  <g id="Group_74753" data-name="Group 74753" transform="translate(20.405 20.405)">
    <g id="Group_74751" data-name="Group 74751" transform="translate(0 0)">
      <g id="Group_74750" data-name="Group 74750">
        <path id="Path_757" data-name="Path 757" d="M193.262,162.5c3.049,1.08,6.435,2.377,8.332,3.866a2.606,2.606,0,0,1,.576,2.473,3.662,3.662,0,0,1-2.4,2.881,6.553,6.553,0,0,1-5.955-.864,3.6,3.6,0,0,0-4.322,5.763,13.791,13.791,0,0,0,4.97,2.257V180.1a3.6,3.6,0,0,0,7.2,0v-1.441a1.533,1.533,0,0,1,.168-.048,10.785,10.785,0,0,0,7.4-8.428,9.691,9.691,0,0,0-3.193-9.484c-2.185-1.7-5.186-3.145-10.373-4.994h0a4.217,4.217,0,0,1-3.049-4.922,5.533,5.533,0,0,1,5.474-4.658c3.289-.024,4.226.12,6.723,1.753a3.606,3.606,0,0,0,3.962-6.027,15.5,15.5,0,0,0-7.083-2.785V137.7a3.6,3.6,0,1,0-7.2,0v1.729a12.089,12.089,0,0,0-4.97,2.809,13.018,13.018,0,0,0-3.986,7.347A11.373,11.373,0,0,0,193.262,162.5Z" transform="translate(-160.872 -121.927)" fill="none"/>
        <path id="Path_758" data-name="Path 758" d="M120.4,157.4a37.033,37.033,0,0,0,37-37h0a37,37,0,1,0-37,37Zm-12.341-46.316a13.018,13.018,0,0,1,3.986-7.347,12.366,12.366,0,0,1,4.97-2.809V99.2a3.6,3.6,0,1,1,7.2,0v1.369a15.232,15.232,0,0,1,7.083,2.785,3.606,3.606,0,1,1-3.962,6.027c-2.5-1.633-3.434-1.777-6.723-1.753a5.494,5.494,0,0,0-5.474,4.658,4.189,4.189,0,0,0,3.049,4.922h0c5.186,1.825,8.188,3.265,10.373,4.994a9.591,9.591,0,0,1,3.193,9.484,10.75,10.75,0,0,1-7.4,8.428,1.53,1.53,0,0,1-.168.048V141.6a3.6,3.6,0,0,1-7.2,0v-1.225a13.783,13.783,0,0,1-4.97-2.257,3.6,3.6,0,1,1,4.322-5.763,6.533,6.533,0,0,0,5.955.864,3.678,3.678,0,0,0,2.4-2.881,2.588,2.588,0,0,0-.576-2.473c-1.873-1.489-5.258-2.785-8.332-3.866A11.4,11.4,0,0,1,108.059,111.084Z" transform="translate(-83.4 -83.4)" fill="#007bcc"/>
      </g>
    </g>
    <g id="Group_74752" data-name="Group 74752" transform="translate(0 0.264)">
      <path id="Path_759" data-name="Path 759" d="M120.4,84.5a37.033,37.033,0,0,0-37,37h0a37,37,0,1,0,37-37Z" transform="translate(-83.4 -84.5)" fill="#007bcc"/>
    </g>
    <path id="Path_760" data-name="Path 760" d="M183.234,162.771a8.243,8.243,0,0,0-5.787-7.851h0v-8.14a19.3,19.3,0,0,0-19.28-19.28h0a19.3,19.3,0,0,0-19.28,19.28v8.164c-.144.048-.264.1-.384.144-.24.1-.5.192-.744.312a8.424,8.424,0,0,0-2.521,1.873c-.1.1-.168.192-.264.288a8.251,8.251,0,0,0,0,10.469,2.877,2.877,0,0,0,.264.288,8.133,8.133,0,0,0,2.521,1.873,6.914,6.914,0,0,0,.744.312,7.185,7.185,0,0,0,.768.24,8.2,8.2,0,0,0,2.041.264h2.041a2.326,2.326,0,0,0,4.538-.72V155.232A2.312,2.312,0,0,0,146.21,153a2.352,2.352,0,0,0-2.905,1.585v.024H142.08v-7.635a16.087,16.087,0,0,1,32.174,0v7.635h-1.225v-.024a2.341,2.341,0,0,0-4.586.648v15.055a2.326,2.326,0,0,0,4.538.72h2.041a8.2,8.2,0,0,0,2.041-.264,8.025,8.025,0,0,1-8.02,7.419H161.6v-1.08H155.91a1.873,1.873,0,0,0,0,3.746H161.6V179.6h7.443a9.474,9.474,0,0,0,9.46-9.364A8.256,8.256,0,0,0,183.234,162.771Z" transform="translate(-121.167 -116.911)" fill="#fff"/>
  </g>
  <path id="Path_761" data-name="Path 761" d="M100.648,88.379a3.629,3.629,0,0,0,5.162-1.008A56.92,56.92,0,0,0,57.4.5,56.9,56.9,0,0,0,16.491,96.95h0a56.56,56.56,0,0,0,32.8,16.783l-3.554,3.554a3.6,3.6,0,1,0,5.09,5.09l9.124-9.124a3.58,3.58,0,0,0,0-5.09l-9.124-9.124a3.594,3.594,0,0,0-5.09,0,3.58,3.58,0,0,0,0,5.09l2.041,2.041A49.716,49.716,0,1,1,99.688,83.528a3.632,3.632,0,0,0,.96,4.85Z" transform="translate(0)" fill="#35db88" stroke="#fff" stroke-miterlimit="10" stroke-width="1"/>
</svg>
