<svg xmlns="http://www.w3.org/2000/svg" width="113.81" height="122.94" viewBox="0 0 113.81 122.94">
  <g id="Group_74757" data-name="Group 74757" transform="translate(0 0.025)">
    <path id="Path_743" data-name="Path 743" d="M97.819,26.465a56.56,56.56,0,0,0-32.8-16.783l3.554-3.554a3.6,3.6,0,0,0-5.09-5.09L54.36,10.161a3.58,3.58,0,0,0,0,5.09l9.124,9.124a3.594,3.594,0,0,0,5.09,0,3.58,3.58,0,0,0,0-5.09l-2.041-2.041a49.65,49.65,0,1,1-26.34,1.945,3.607,3.607,0,1,0-2.425-6.795,56.934,56.934,0,1,0,60.05,14.07Z" fill="#35db88"/>
    <g id="Group_74740" data-name="Group 74740" transform="translate(19.905 29.01)">
      <path id="Path_744" data-name="Path 744" d="M201.991,193c-3.049-1.08-6.435-2.377-8.332-3.866a2.606,2.606,0,0,1-.576-2.473,3.662,3.662,0,0,1,2.4-2.881,6.553,6.553,0,0,1,5.955.864,3.6,3.6,0,0,0,4.322-5.763,13.791,13.791,0,0,0-4.97-2.257V175.4a3.6,3.6,0,0,0-7.2,0v1.441a1.523,1.523,0,0,1-.168.048,10.785,10.785,0,0,0-7.4,8.428,9.691,9.691,0,0,0,3.193,9.484c2.185,1.7,5.186,3.145,10.373,4.994h0a4.217,4.217,0,0,1,3.049,4.922,5.533,5.533,0,0,1-5.474,4.658c-3.289.024-4.226-.12-6.723-1.753a3.606,3.606,0,0,0-3.962,6.027,15.5,15.5,0,0,0,7.083,2.785V217.8a3.6,3.6,0,1,0,7.2,0v-1.729a12.09,12.09,0,0,0,4.97-2.809,13.018,13.018,0,0,0,3.986-7.347A11.373,11.373,0,0,0,201.991,193Z" transform="translate(-160.381 -159.579)" fill="none"/>
      <path id="Path_745" data-name="Path 745" d="M119.9,120.9a37.033,37.033,0,0,0-37,37h0a37,37,0,1,0,37-37Zm12.365,46.316a13.018,13.018,0,0,1-3.986,7.347,12.366,12.366,0,0,1-4.97,2.809V179.1a3.6,3.6,0,0,1-7.2,0v-1.369a15.232,15.232,0,0,1-7.083-2.785,3.606,3.606,0,1,1,3.962-6.027c2.5,1.633,3.434,1.777,6.723,1.753a5.494,5.494,0,0,0,5.474-4.658,4.189,4.189,0,0,0-3.049-4.922h0c-5.186-1.825-8.188-3.265-10.373-4.994a9.591,9.591,0,0,1-3.193-9.484,10.75,10.75,0,0,1,7.4-8.428,1.533,1.533,0,0,1,.168-.048V136.7a3.6,3.6,0,1,1,7.2,0v1.225a13.783,13.783,0,0,1,4.97,2.257,3.6,3.6,0,0,1-4.322,5.763,6.533,6.533,0,0,0-5.955-.864,3.678,3.678,0,0,0-2.4,2.881,2.588,2.588,0,0,0,.576,2.473c1.873,1.489,5.258,2.785,8.332,3.866A11.447,11.447,0,0,1,132.266,167.216Z" transform="translate(-82.9 -120.9)" fill="#007bcc"/>
    </g>
  </g>
</svg>
