<svg xmlns="http://www.w3.org/2000/svg" width="113.81" height="99.581" viewBox="0 0 113.81 99.581">
  <g id="Group_74756" data-name="Group 74756" transform="translate(-15 -22.606)">
    <g id="Group_74734" data-name="Group 74734" transform="translate(15 22.606)">
      <g id="Group_74728" data-name="Group 74728" transform="translate(0 21.336)">
        <g id="Group_74727" data-name="Group 74727" transform="translate(0 0)">
          <path id="Path_733" data-name="Path 733" d="M49.792,135.105v-7.113H7.113A7.125,7.125,0,0,0,0,135.105v14.226H51.293A63.687,63.687,0,0,1,49.792,135.105Z" transform="translate(0 -127.992)" fill="#007bcc"/>
        </g>
      </g>
      <g id="Group_74729" data-name="Group 74729" transform="translate(0 56.902)">
        <path id="Path_734" data-name="Path 734" d="M113.518,287.992c-4.851,7.476-12.249,13.835-22.847,19.924a10.687,10.687,0,0,1-10.606.014c-10.6-6.1-18-12.469-22.854-19.938H0v35.566a7.12,7.12,0,0,0,7.113,7.113H106.7a7.116,7.116,0,0,0,7.113-7.113V287.992ZM32.009,309.331H17.783a3.557,3.557,0,0,1,0-7.113H32.009a3.557,3.557,0,0,1,0,7.113Z" transform="translate(0 -287.992)" fill="#007bcc"/>
      </g>
      <g id="Group_74732" data-name="Group 74732" transform="translate(56.905 0)">
        <g id="Group_74731" data-name="Group 74731">
          <path id="Path_735" data-name="Path 735" d="M310.75,42.966l-24.9-10.67a3.569,3.569,0,0,0-2.81,0l-24.9,10.67A3.548,3.548,0,0,0,256,46.231V60.457c0,19.568,7.234,31.006,26.681,42.209a3.576,3.576,0,0,0,3.542,0C305.671,91.492,312.9,80.054,312.9,60.457V46.231A3.543,3.543,0,0,0,310.75,42.966ZM297.9,59.127,283.677,76.91a3.6,3.6,0,0,1-2.781,1.33h-.149a3.57,3.57,0,0,1-2.81-1.579l-7.113-10.67a3.555,3.555,0,1,1,5.918-3.941l4.417,6.622,11.182-13.984a3.558,3.558,0,0,1,5.562,4.439Z" transform="translate(-256 -32.008)" fill="#35db88"/>
        </g>
      </g>
    </g>
  </g>
</svg>
