<svg xmlns="http://www.w3.org/2000/svg" width="283" height="274" viewBox="0 0 283 274">
  <g id="Group_74725" data-name="Group 74725" transform="translate(-1270 -4315)">
    <g id="Group_74724" data-name="Group 74724" transform="translate(1320.081 4367)">
      <g id="Group_74721" data-name="Group 74721" transform="translate(8.919 59.175)">
        <g id="Group_74720" data-name="Group 74720">
          <path id="Path_729" data-name="Path 729" d="M172.7,212.728l-15.43-30.369a7.835,7.835,0,0,0-6.931-4.432H31.842a7.835,7.835,0,0,0-6.931,4.432L9.482,212.728a5.243,5.243,0,0,0,.2,5.085,4.636,4.636,0,0,0,3.955,2.266H26.2v61.09c0,4.336,3.266,7.864,7.281,7.864H148.706c4.015,0,7.281-3.528,7.281-7.864V254.943a2.495,2.495,0,0,0-4.989,0v26.225c0,1.558-1.05,2.875-2.292,2.875H93.588v-93.2l13.01,25.607a6.441,6.441,0,0,0,5.705,3.634H151V243.3a2.495,2.495,0,0,0,4.989,0V220.079H168.55a4.637,4.637,0,0,0,3.955-2.266A5.245,5.245,0,0,0,172.7,212.728Zm-158.8,2.362a.227.227,0,0,1,.024-.1l15.43-30.369a2.882,2.882,0,0,1,2.483-1.7H87.028L71.141,214.185h0a1.493,1.493,0,0,1-1.257.9ZM88.6,284.043H33.481c-1.243,0-2.292-1.316-2.292-2.874v-61.09H69.883a6.441,6.441,0,0,0,5.705-3.634L88.6,190.838Zm23.7-68.953a1.492,1.492,0,0,1-1.257-.9L95.159,182.916h55.186a2.883,2.883,0,0,1,2.483,1.7l15.43,30.369a.223.223,0,0,1,.024.1Z" transform="translate(-8.919 -177.927)" fill="#007bcc"/>
        </g>
      </g>
      <g id="Group_74723" data-name="Group 74723" transform="translate(60.737 0)">
        <g id="Group_74722" data-name="Group 74722" transform="translate(0 0)">
          <path id="Path_730" data-name="Path 730" d="M195.08,7.756a16.426,16.426,0,0,0-30.356,8.714c.013,12.667,8.494,24.93,23.269,33.643a2.494,2.494,0,0,0,2.534-4.3c-6.253-3.688-20.8-13.93-20.815-29.351A11.434,11.434,0,0,1,182.67,5.124c6.177.832,8.316,5.686,8.792,6.182,2.2,2.3,5.21,2.306,7.282-.069.554-.64,3.228-6.242,10.266-6.249a11.455,11.455,0,0,1,11.439,11.425c.015,14.682-13.046,24.719-20.832,29.395a2.495,2.495,0,0,0,2.569,4.277c15.007-9.013,23.265-20.973,23.253-33.677C225.42.349,204.316-6.486,195.08,7.756Z" transform="translate(-164.724 0)" fill="#007bcc"/>
        </g>
      </g>
    </g>
    <ellipse id="Ellipse_81" data-name="Ellipse 81" cx="141.5" cy="137" rx="141.5" ry="137" transform="translate(1270 4315)" fill="#007bcc" opacity="0.1"/>
  </g>
</svg>
