<svg xmlns="http://www.w3.org/2000/svg" width="181.229" height="181.229" viewBox="0 0 181.229 181.229">
  <g id="Group_74853" data-name="Group 74853" transform="translate(0)">
    <g id="Path_744" data-name="Path 744" transform="translate(0 0)" fill="#fff">
      <path d="M 90.61441040039063 179.7292327880859 C 84.56712341308594 179.7292327880859 78.52410125732422 179.1200866699219 72.65317535400391 177.918701171875 C 66.93219757080078 176.7480316162109 61.30488586425781 175.0012054443359 55.92752838134766 172.7267761230469 C 50.64745712280273 170.4934844970703 45.55469512939453 167.7292022705078 40.79074478149414 164.5107574462891 C 36.07167053222656 161.3225860595703 31.63400650024414 157.6611633300781 27.60100555419922 153.6281585693359 C 23.56802940368652 149.5951843261719 19.90660095214844 145.1574859619141 16.71845817565918 140.4384002685547 C 13.49998188018799 135.6744232177734 10.73571968078613 130.5816497802734 8.502433776855469 125.3015823364258 C 6.228005409240723 119.924201965332 4.48119592666626 114.2968673706055 3.310505628585815 108.5758972167969 C 2.109148502349854 102.704963684082 1.500005602836609 96.66189575195313 1.500005602836609 90.61460876464844 C 1.500005602836609 84.56732177734375 2.109148502349854 78.52427673339844 3.310505628585815 72.6533203125 C 4.48119592666626 66.93235015869141 6.228005409240723 61.30501174926758 8.502433776855469 55.92765808105469 C 10.73571968078613 50.64756011962891 13.49998188018799 45.5547981262207 16.71845817565918 40.79084777832031 C 19.90660095214844 36.07175064086914 23.56802940368652 31.63406181335449 27.60100555419922 27.6010856628418 C 31.63400650024414 23.56808471679688 36.07167053222656 19.90665626525879 40.79074478149414 16.71849060058594 C 45.55469512939453 13.50003719329834 50.64745712280273 10.73575115203857 55.92752838134766 8.502466201782227 C 61.30488586425781 6.228037357330322 66.93219757080078 4.481204032897949 72.65317535400391 3.310537338256836 C 78.52410125732422 2.109156370162964 84.56712341308594 1.500013470649719 90.61441040039063 1.500013470649719 C 96.66169738769531 1.500013470649719 102.704719543457 2.109156370162964 108.5756454467773 3.310537338256836 C 114.2966003417969 4.481204032897949 119.9239349365234 6.228037357330322 125.3012924194336 8.502466201782227 C 130.5813598632813 10.73575115203857 135.6741027832031 13.50003719329834 140.4380493164063 16.71849060058594 C 145.1571502685547 19.90665626525879 149.5948181152344 23.56808471679688 153.6277923583984 27.6010856628418 C 157.6607971191406 31.63406181335449 161.3221893310547 36.07175064086914 164.5103607177734 40.79084777832031 C 167.7288208007813 45.5547981262207 170.4931030273438 50.64756011962891 172.7263793945313 55.92765808105469 C 175.0008087158203 61.30501174926758 176.7476196289063 66.93235015869141 177.9183197021484 72.6533203125 C 179.1196746826172 78.52427673339844 179.7288208007813 84.56732177734375 179.7288208007813 90.61460876464844 C 179.7288208007813 96.66189575195313 179.1196746826172 102.704963684082 177.9183197021484 108.5758972167969 C 176.7476196289063 114.2968673706055 175.0008087158203 119.924201965332 172.7263793945313 125.3015823364258 C 170.4931030273438 130.5816497802734 167.7288208007813 135.6744232177734 164.5103607177734 140.4384002685547 C 161.3221893310547 145.1574859619141 157.6607971191406 149.5951843261719 153.6277923583984 153.6281585693359 C 149.5948181152344 157.6611633300781 145.1571502685547 161.3225860595703 140.4380493164063 164.5107574462891 C 135.6741027832031 167.7292022705078 130.5813598632813 170.4934844970703 125.3012924194336 172.7267761230469 C 119.9239349365234 175.0012054443359 114.2966003417969 176.7480316162109 108.5756454467773 177.918701171875 C 102.704719543457 179.1200866699219 96.66169738769531 179.7292327880859 90.61441040039063 179.7292327880859 Z" stroke="none"/>
      <path d="M 90.61441040039063 3.000015258789063 C 84.66793823242188 3.000015258789063 78.72605895996094 3.598907470703125 72.95388793945313 4.78009033203125 C 67.32991027832031 5.930908203125 61.79801177978516 7.648101806640625 56.51186370849609 9.883956909179688 C 51.32098388671875 12.07952880859375 46.31416320800781 14.79718017578125 41.63046264648438 17.96144104003906 C 36.990478515625 21.09613037109375 32.62713623046875 24.69625854492188 28.66166687011719 28.66172790527344 C 24.69618225097656 32.62721252441406 21.09608459472656 36.99055480957031 17.96138000488281 41.63055419921875 C 14.79713439941406 46.31425476074219 12.07948303222656 51.32110595703125 9.883941650390625 56.51198577880859 C 7.648056030273438 61.79815673828125 5.930892944335938 67.33005523681641 4.780029296875 72.95403289794922 C 3.598892211914063 78.72623443603516 2.999984741210938 84.66810607910156 2.999984741210938 90.61460876464844 C 2.999984741210938 96.56111145019531 3.598892211914063 102.5029830932617 4.780029296875 108.2751846313477 C 5.930892944335938 113.8991622924805 7.648056030273438 119.4310607910156 9.883941650390625 124.7172393798828 C 12.07948303222656 129.9081115722656 14.79713439941406 134.9149627685547 17.96138000488281 139.5986633300781 C 21.09608459472656 144.2386627197266 24.69618225097656 148.6020050048828 28.66166687011719 152.5674896240234 C 32.62713623046875 156.532958984375 36.990478515625 160.1330871582031 41.63046264648438 163.2677917480469 C 46.31416320800781 166.4320373535156 51.32098388671875 169.1496887207031 56.51186370849609 171.3452606201172 C 61.79801177978516 173.5811157226563 67.32991027832031 175.2983093261719 72.95388793945313 176.4491271972656 C 78.72605895996094 177.6303100585938 84.66793823242188 178.2292022705078 90.61441040039063 178.2292022705078 C 96.56088256835938 178.2292022705078 102.5027618408203 177.6303100585938 108.2749328613281 176.4491271972656 C 113.8988876342773 175.2983093261719 119.4307861328125 173.5811157226563 124.7169647216797 171.3452606201172 C 129.9078063964844 169.1496887207031 134.9146423339844 166.4320373535156 139.5983581542969 163.2677917480469 C 144.2383422851563 160.1330871582031 148.6016540527344 156.532958984375 152.567138671875 152.5674896240234 C 156.5326080322266 148.6020050048828 160.1327056884766 144.2386627197266 163.2674102783203 139.5986633300781 C 166.4316558837891 134.9149627685547 169.1493072509766 129.9081115722656 171.3448638916016 124.7172393798828 C 173.5807342529297 119.4310607910156 175.2979125976563 113.8991622924805 176.4487609863281 108.2751846313477 C 177.6299133300781 102.5029830932617 178.2288055419922 96.56111145019531 178.2288055419922 90.61460876464844 C 178.2288055419922 84.66810607910156 177.6299133300781 78.72623443603516 176.4487609863281 72.95403289794922 C 175.2979125976563 67.33005523681641 173.5807342529297 61.79815673828125 171.3448638916016 56.51198577880859 C 169.1493072509766 51.32110595703125 166.4316558837891 46.31425476074219 163.2674102783203 41.63055419921875 C 160.1327056884766 36.99055480957031 156.5326080322266 32.62721252441406 152.567138671875 28.66172790527344 C 148.6016540527344 24.69625854492188 144.2383422851563 21.09613037109375 139.5983581542969 17.96144104003906 C 134.9146423339844 14.79718017578125 129.9078063964844 12.07952880859375 124.7169647216797 9.883956909179688 C 119.4307861328125 7.648101806640625 113.8988876342773 5.930908203125 108.2749328613281 4.78009033203125 C 102.5027618408203 3.598907470703125 96.56088256835938 3.000015258789063 90.61441040039063 3.000015258789063 M 90.61441040039063 1.52587890625e-05 C 140.6593322753906 1.52587890625e-05 181.2288055419922 40.56956481933594 181.2288055419922 90.61460876464844 C 181.2288055419922 140.65966796875 140.6593322753906 181.2292022705078 90.61441040039063 181.2292022705078 C 40.5694580078125 181.2292022705078 -1.52587890625e-05 140.65966796875 -1.52587890625e-05 90.61460876464844 C -1.52587890625e-05 40.56956481933594 40.5694580078125 1.52587890625e-05 90.61441040039063 1.52587890625e-05 Z" stroke="none" fill="#e9e9e9"/>
    </g>
    <g id="Group_74724" data-name="Group 74724" transform="translate(52.465 47.404)">
      <g id="Group_74721" data-name="Group 74721" transform="translate(0 27.163)">
        <g id="Group_74720" data-name="Group 74720">
          <path id="Path_729" data-name="Path 729" d="M84.1,193.9l-7.083-13.94a3.6,3.6,0,0,0-3.181-2.034h-54.4a3.6,3.6,0,0,0-3.181,2.034L9.177,193.9a2.407,2.407,0,0,0,.092,2.334,2.128,2.128,0,0,0,1.815,1.04h5.767v28.042a3.488,3.488,0,0,0,3.342,3.61H73.086a3.488,3.488,0,0,0,3.342-3.61V213.28a1.145,1.145,0,0,0-2.29,0v12.038a1.226,1.226,0,0,1-1.052,1.32h-25.3V183.854l5.972,11.754a2.957,2.957,0,0,0,2.619,1.668H74.138v10.66a1.145,1.145,0,0,0,2.29,0v-10.66H82.2a2.129,2.129,0,0,0,1.815-1.04A2.408,2.408,0,0,0,84.1,193.9Zm-72.894,1.084a.1.1,0,0,1,.011-.047L18.3,181a1.323,1.323,0,0,1,1.14-.782H44.774l-7.293,14.354h0a.685.685,0,0,1-.577.415Zm34.287,31.652h-25.3a1.225,1.225,0,0,1-1.052-1.32V197.276H36.9a2.956,2.956,0,0,0,2.619-1.668l5.972-11.754Zm10.881-31.652a.685.685,0,0,1-.577-.415l-7.293-14.354H73.838a1.323,1.323,0,0,1,1.14.782l7.083,13.94a.1.1,0,0,1,.011.047Z" transform="translate(-8.919 -177.927)" fill="#007bcc"/>
        </g>
      </g>
      <g id="Group_74723" data-name="Group 74723" transform="translate(23.786 0)">
        <g id="Group_74722" data-name="Group 74722" transform="translate(0 0)">
          <path id="Path_730" data-name="Path 730" d="M178.658,3.56a7.54,7.54,0,0,0-13.934,4C164.73,13.375,168.623,19,175.405,23a1.145,1.145,0,0,0,1.163-1.973c-2.87-1.693-9.547-6.394-9.555-13.473a5.249,5.249,0,0,1,5.948-5.206A5.529,5.529,0,0,1,177,5.19a2.138,2.138,0,0,0,3.343-.032,5.463,5.463,0,0,1,4.712-2.869A5.258,5.258,0,0,1,190.3,7.534c.007,6.74-5.988,11.347-9.563,13.493a1.145,1.145,0,0,0,1.179,1.963c6.889-4.137,10.68-9.627,10.674-15.459A7.54,7.54,0,0,0,178.658,3.56Z" transform="translate(-164.724 0)" fill="#007bcc"/>
        </g>
      </g>
    </g>
  </g>
</svg>
