<svg xmlns="http://www.w3.org/2000/svg" width="283" height="274" viewBox="0 0 283 274">
  <g id="Group_74684" data-name="Group 74684" transform="translate(-1345 -2412)">
    <g id="Group_74678" data-name="Group 74678" transform="translate(1403 2453.812)">
      <g id="Group_74680" data-name="Group 74680" transform="translate(0 17.188)">
        <g id="Group_74679" data-name="Group 74679">
          <g id="Group_74678-2" data-name="Group 74678">
            <path id="Path_690" data-name="Path 690" d="M159.616,157.343h-2.08V116.751a2.458,2.458,0,0,0-4.916,0v40.593H100.473V90.521h50.138a2.011,2.011,0,0,1,2.009,2.009v12.64a2.458,2.458,0,1,0,4.916,0V92.53a6.933,6.933,0,0,0-6.925-6.925H100.473V40.934a6.959,6.959,0,0,0-6.343-6.9V29.1a6.959,6.959,0,0,0-6.384-6.9L24.083,17.21a6.93,6.93,0,0,0-7.466,6.9v3.937a6.926,6.926,0,0,0-6.342,6.9V157.343H8.194a8.194,8.194,0,0,0,0,16.388H159.616a8.194,8.194,0,1,0,0-16.387ZM21.533,24.115a2.007,2.007,0,0,1,2.166-2L87.362,27.1a2.019,2.019,0,0,1,1.852,2v4.544l-67.681-5.3V24.115ZM15.19,34.951a2.007,2.007,0,0,1,2.166-2L93.7,38.931a2.019,2.019,0,0,1,1.852,2V157.343H88.687V122.149a4.062,4.062,0,0,0-4.057-4.057H61.792a4.062,4.062,0,0,0-4.057,4.057V138.1a2.458,2.458,0,1,0,4.916,0V123.008h21.12v34.335H62.651v-7.756a2.458,2.458,0,1,0-4.916,0v7.756H15.19ZM159.616,168.815H8.194a3.278,3.278,0,0,1,0-6.555H159.616a3.278,3.278,0,0,1,0,6.555Z" transform="translate(0 -17.188)" fill="#007bcc"/>
            <path id="Path_691" data-name="Path 691" d="M67.2,129.841h9.95A4.247,4.247,0,0,0,81.4,125.6v-7.655a4.247,4.247,0,0,0-4.242-4.242H67.2a4.247,4.247,0,0,0-4.242,4.242V125.6A4.247,4.247,0,0,0,67.2,129.841Zm.675-11.223h8.6v6.307h-8.6Z" transform="translate(-42.327 -82.069)" fill="#007bcc"/>
            <path id="Path_692" data-name="Path 692" d="M142.9,129.841h9.95a4.247,4.247,0,0,0,4.242-4.242v-7.655a4.247,4.247,0,0,0-4.242-4.242H142.9a4.247,4.247,0,0,0-4.242,4.242V125.6A4.246,4.246,0,0,0,142.9,129.841Zm.674-11.223h8.6v6.307h-8.6Z" transform="translate(-93.212 -82.069)" fill="#007bcc"/>
            <path id="Path_693" data-name="Path 693" d="M218.592,129.841h9.95a4.246,4.246,0,0,0,4.242-4.242v-7.655a4.247,4.247,0,0,0-4.242-4.242h-9.95a4.247,4.247,0,0,0-4.242,4.242V125.6a4.246,4.246,0,0,0,4.242,4.242Zm.674-11.223h8.6v6.307h-8.6Z" transform="translate(-144.096 -82.069)" fill="#007bcc"/>
            <path id="Path_694" data-name="Path 694" d="M67.2,197.277h9.95a4.247,4.247,0,0,0,4.242-4.242V185.38a4.247,4.247,0,0,0-4.242-4.242H67.2a4.247,4.247,0,0,0-4.242,4.242v7.655a4.247,4.247,0,0,0,4.242,4.242Zm.675-11.223h8.6v6.307h-8.6Z" transform="translate(-42.327 -127.403)" fill="#007bcc"/>
            <path id="Path_695" data-name="Path 695" d="M142.9,197.277h9.95a4.247,4.247,0,0,0,4.242-4.242V185.38a4.247,4.247,0,0,0-4.242-4.242H142.9a4.247,4.247,0,0,0-4.242,4.242v7.655a4.246,4.246,0,0,0,4.242,4.242Zm.674-11.223h8.6v6.307h-8.6Z" transform="translate(-93.212 -127.403)" fill="#007bcc"/>
            <path id="Path_696" data-name="Path 696" d="M218.592,197.277h9.95a4.246,4.246,0,0,0,4.242-4.242V185.38a4.247,4.247,0,0,0-4.242-4.242h-9.95a4.247,4.247,0,0,0-4.242,4.242v7.655a4.246,4.246,0,0,0,4.242,4.242Zm.674-11.223h8.6v6.307h-8.6Z" transform="translate(-144.096 -127.403)" fill="#007bcc"/>
            <path id="Path_697" data-name="Path 697" d="M67.2,264.714h9.95a4.247,4.247,0,0,0,4.242-4.242v-7.655a4.247,4.247,0,0,0-4.242-4.242H67.2a4.247,4.247,0,0,0-4.242,4.242v7.655A4.247,4.247,0,0,0,67.2,264.714Zm.675-11.223h8.6V259.8h-8.6Z" transform="translate(-42.327 -172.737)" fill="#007bcc"/>
            <path id="Path_698" data-name="Path 698" d="M89.7,325.052H67.683a4.725,4.725,0,0,0-4.72,4.72v6.7a4.725,4.725,0,0,0,4.72,4.72H89.7a4.725,4.725,0,0,0,4.72-4.72v-6.7A4.725,4.725,0,0,0,89.7,325.052Zm-.2,11.223H67.879v-6.307H89.507Z" transform="translate(-42.327 -224.149)" fill="#007bcc"/>
            <path id="Path_699" data-name="Path 699" d="M142.9,264.714h9.95a4.247,4.247,0,0,0,4.242-4.242v-7.655a4.247,4.247,0,0,0-4.242-4.242H142.9a4.247,4.247,0,0,0-4.242,4.242v7.655A4.246,4.246,0,0,0,142.9,264.714Zm.674-11.223h8.6V259.8h-8.6Z" transform="translate(-93.212 -172.737)" fill="#007bcc"/>
            <path id="Path_700" data-name="Path 700" d="M218.592,264.714h9.95a4.246,4.246,0,0,0,4.242-4.242v-7.655a4.247,4.247,0,0,0-4.242-4.242h-9.95a4.247,4.247,0,0,0-4.242,4.242v7.655a4.246,4.246,0,0,0,4.242,4.242Zm.674-11.223h8.6V259.8h-8.6Z" transform="translate(-144.096 -172.737)" fill="#007bcc"/>
            <path id="Path_701" data-name="Path 701" d="M341.434,282.022a4.527,4.527,0,0,0-4.522-4.522H326.873a4.527,4.527,0,0,0-4.522,4.522v7.962a4.527,4.527,0,0,0,4.522,4.522h10.038a4.527,4.527,0,0,0,4.522-4.522Zm-4.916,7.568h-9.25v-7.174h9.25Z" transform="translate(-216.699 -192.182)" fill="#007bcc"/>
            <path id="Path_702" data-name="Path 702" d="M336.911,346.717H326.873a4.527,4.527,0,0,0-4.522,4.522V359.2a4.527,4.527,0,0,0,4.522,4.522h10.038a4.527,4.527,0,0,0,4.522-4.522v-7.962A4.527,4.527,0,0,0,336.911,346.717Zm-.394,12.09h-9.25v-7.174h9.25Z" transform="translate(-216.699 -238.713)" fill="#007bcc"/>
            <path id="Path_703" data-name="Path 703" d="M411.194,282.022a4.527,4.527,0,0,0-4.522-4.522H396.634a4.527,4.527,0,0,0-4.522,4.522v7.962a4.527,4.527,0,0,0,4.522,4.522h10.038a4.527,4.527,0,0,0,4.522-4.522Zm-4.916,7.568h-9.25v-7.174h9.25Z" transform="translate(-263.596 -192.182)" fill="#007bcc"/>
            <path id="Path_704" data-name="Path 704" d="M406.672,346.717H396.634a4.527,4.527,0,0,0-4.522,4.522V359.2a4.527,4.527,0,0,0,4.522,4.522h10.038a4.527,4.527,0,0,0,4.522-4.522v-7.962A4.527,4.527,0,0,0,406.672,346.717Zm-.394,12.09h-9.25v-7.174h9.25Z" transform="translate(-263.596 -238.713)" fill="#007bcc"/>
          </g>
        </g>
      </g>
      <g id="Group_74683" data-name="Group 74683" transform="translate(109.296 26.905)">
        <g id="Group_74682" data-name="Group 74682">
          <g id="Group_74681" data-name="Group 74681">
            <path id="Path_705" data-name="Path 705" d="M409.481,88.013a.864.864,0,0,0-.579-.368c-1.21,0-11.626-.421-11.626-12.52a.684.684,0,1,0-1.368,0c0,12.1-10.416,12.52-11.573,12.52a.6.6,0,0,0-.421.158c-.105.052-.158.158-.21.21a.781.781,0,0,0,0,.684.73.73,0,0,0,.631.368h.053c1.21,0,11.573.421,11.573,12.52a.684.684,0,0,0,1.368,0c0-12.047,10.363-12.52,11.573-12.52a.8.8,0,0,0,.631-.368A.647.647,0,0,0,409.481,88.013ZM396.592,96.43a12.007,12.007,0,0,0-8.206-8.1,12.007,12.007,0,0,0,8.206-8.1,12.008,12.008,0,0,0,8.207,8.1A12.008,12.008,0,0,0,396.592,96.43Z" transform="translate(-367.186 -65.393)" fill="#007bcc"/>
            <path id="Path_706" data-name="Path 706" d="M366.6,55.778a.709.709,0,0,0,.684-.736.7.7,0,0,0-.684-.684c-.631,0-6.313-.21-6.313-6.839a.684.684,0,1,0-1.368,0c0,6.628-5.681,6.839-6.313,6.839h-.053a.686.686,0,0,0-.631.684.7.7,0,0,0,.684.684c.684,0,6.313.21,6.313,6.839a.7.7,0,0,0,.684.684.607.607,0,0,0,.631-.631c0-6.628,5.681-6.839,6.313-6.839Zm-7.049,3a7.055,7.055,0,0,0-3.788-3.735,7.077,7.077,0,0,0,3.788-3.735,7.055,7.055,0,0,0,3.787,3.735A7.078,7.078,0,0,0,359.554,58.776Z" transform="translate(-345.877 -46.835)" fill="#007bcc"/>
            <path id="Path_707" data-name="Path 707" d="M348.146,126.744c-.631,0-6.313-.21-6.313-6.839a.684.684,0,0,0-1.368,0c0,6.628-5.681,6.839-6.313,6.839H334.1a.687.687,0,0,0-.631.684.7.7,0,0,0,.684.684c.684,0,6.313.21,6.313,6.839a.7.7,0,0,0,.684.684c.316.105.631-.21.631-.631,0-6.628,5.681-6.839,6.313-6.839h.053a.709.709,0,0,0,.684-.736A.7.7,0,0,0,348.146,126.744Zm-7.049,4.472a7.228,7.228,0,0,0-3.788-3.735,7.077,7.077,0,0,0,3.788-3.735,7.055,7.055,0,0,0,3.788,3.735A7.079,7.079,0,0,0,341.1,131.216Z" transform="translate(-333.469 -95.497)" fill="#007bcc"/>
          </g>
        </g>
      </g>
    </g>
    <ellipse id="Ellipse_78" data-name="Ellipse 78" cx="141.5" cy="137" rx="141.5" ry="137" transform="translate(1345 2412)" fill="#007bcc" opacity="0.1"/>
  </g>
</svg>
