<svg xmlns="http://www.w3.org/2000/svg" width="181.229" height="181.229" viewBox="0 0 181.229 181.229">
  <g id="Group_74885" data-name="Group 74885" transform="translate(0)">
    <g id="Path_744" data-name="Path 744" transform="translate(0 0)" fill="#fff">
      <path d="M 90.61441040039063 179.7292327880859 C 84.56712341308594 179.7292327880859 78.52410125732422 179.1200866699219 72.65317535400391 177.918701171875 C 66.93219757080078 176.7480316162109 61.30488586425781 175.0012054443359 55.92752838134766 172.7267761230469 C 50.64745712280273 170.4934844970703 45.55469512939453 167.7292022705078 40.79074478149414 164.5107574462891 C 36.07167053222656 161.3225860595703 31.63400650024414 157.6611633300781 27.60100555419922 153.6281585693359 C 23.56802940368652 149.5951843261719 19.90660095214844 145.1574859619141 16.71845817565918 140.4384002685547 C 13.49998188018799 135.6744232177734 10.73571968078613 130.5816497802734 8.502433776855469 125.3015823364258 C 6.228005409240723 119.924201965332 4.48119592666626 114.2968673706055 3.310505628585815 108.5758972167969 C 2.109148502349854 102.704963684082 1.500005602836609 96.66189575195313 1.500005602836609 90.61460876464844 C 1.500005602836609 84.56732177734375 2.109148502349854 78.52427673339844 3.310505628585815 72.6533203125 C 4.48119592666626 66.93235015869141 6.228005409240723 61.30501174926758 8.502433776855469 55.92765808105469 C 10.73571968078613 50.64756011962891 13.49998188018799 45.5547981262207 16.71845817565918 40.79084777832031 C 19.90660095214844 36.07175064086914 23.56802940368652 31.63406181335449 27.60100555419922 27.6010856628418 C 31.63400650024414 23.56808471679688 36.07167053222656 19.90665626525879 40.79074478149414 16.71849060058594 C 45.55469512939453 13.50003719329834 50.64745712280273 10.73575115203857 55.92752838134766 8.502466201782227 C 61.30488586425781 6.228037357330322 66.93219757080078 4.481204032897949 72.65317535400391 3.310537338256836 C 78.52410125732422 2.109156370162964 84.56712341308594 1.500013470649719 90.61441040039063 1.500013470649719 C 96.66169738769531 1.500013470649719 102.704719543457 2.109156370162964 108.5756454467773 3.310537338256836 C 114.2966003417969 4.481204032897949 119.9239349365234 6.228037357330322 125.3012924194336 8.502466201782227 C 130.5813598632813 10.73575115203857 135.6741027832031 13.50003719329834 140.4380493164063 16.71849060058594 C 145.1571502685547 19.90665626525879 149.5948181152344 23.56808471679688 153.6277923583984 27.6010856628418 C 157.6607971191406 31.63406181335449 161.3221893310547 36.07175064086914 164.5103607177734 40.79084777832031 C 167.7288208007813 45.5547981262207 170.4931030273438 50.64756011962891 172.7263793945313 55.92765808105469 C 175.0008087158203 61.30501174926758 176.7476196289063 66.93235015869141 177.9183197021484 72.6533203125 C 179.1196746826172 78.52427673339844 179.7288208007813 84.56732177734375 179.7288208007813 90.61460876464844 C 179.7288208007813 96.66189575195313 179.1196746826172 102.704963684082 177.9183197021484 108.5758972167969 C 176.7476196289063 114.2968673706055 175.0008087158203 119.924201965332 172.7263793945313 125.3015823364258 C 170.4931030273438 130.5816497802734 167.7288208007813 135.6744232177734 164.5103607177734 140.4384002685547 C 161.3221893310547 145.1574859619141 157.6607971191406 149.5951843261719 153.6277923583984 153.6281585693359 C 149.5948181152344 157.6611633300781 145.1571502685547 161.3225860595703 140.4380493164063 164.5107574462891 C 135.6741027832031 167.7292022705078 130.5813598632813 170.4934844970703 125.3012924194336 172.7267761230469 C 119.9239349365234 175.0012054443359 114.2966003417969 176.7480316162109 108.5756454467773 177.918701171875 C 102.704719543457 179.1200866699219 96.66169738769531 179.7292327880859 90.61441040039063 179.7292327880859 Z" stroke="none"/>
      <path d="M 90.61441040039063 3.000015258789063 C 84.66793823242188 3.000015258789063 78.72605895996094 3.598907470703125 72.95388793945313 4.78009033203125 C 67.32991027832031 5.930908203125 61.79801177978516 7.648101806640625 56.51186370849609 9.883956909179688 C 51.32098388671875 12.07952880859375 46.31416320800781 14.79718017578125 41.63046264648438 17.96144104003906 C 36.990478515625 21.09613037109375 32.62713623046875 24.69625854492188 28.66166687011719 28.66172790527344 C 24.69618225097656 32.62721252441406 21.09608459472656 36.99055480957031 17.96138000488281 41.63055419921875 C 14.79713439941406 46.31425476074219 12.07948303222656 51.32110595703125 9.883941650390625 56.51198577880859 C 7.648056030273438 61.79815673828125 5.930892944335938 67.33005523681641 4.780029296875 72.95403289794922 C 3.598892211914063 78.72623443603516 2.999984741210938 84.66810607910156 2.999984741210938 90.61460876464844 C 2.999984741210938 96.56111145019531 3.598892211914063 102.5029830932617 4.780029296875 108.2751846313477 C 5.930892944335938 113.8991622924805 7.648056030273438 119.4310607910156 9.883941650390625 124.7172393798828 C 12.07948303222656 129.9081115722656 14.79713439941406 134.9149627685547 17.96138000488281 139.5986633300781 C 21.09608459472656 144.2386627197266 24.69618225097656 148.6020050048828 28.66166687011719 152.5674896240234 C 32.62713623046875 156.532958984375 36.990478515625 160.1330871582031 41.63046264648438 163.2677917480469 C 46.31416320800781 166.4320373535156 51.32098388671875 169.1496887207031 56.51186370849609 171.3452606201172 C 61.79801177978516 173.5811157226563 67.32991027832031 175.2983093261719 72.95388793945313 176.4491271972656 C 78.72605895996094 177.6303100585938 84.66793823242188 178.2292022705078 90.61441040039063 178.2292022705078 C 96.56088256835938 178.2292022705078 102.5027618408203 177.6303100585938 108.2749328613281 176.4491271972656 C 113.8988876342773 175.2983093261719 119.4307861328125 173.5811157226563 124.7169647216797 171.3452606201172 C 129.9078063964844 169.1496887207031 134.9146423339844 166.4320373535156 139.5983581542969 163.2677917480469 C 144.2383422851563 160.1330871582031 148.6016540527344 156.532958984375 152.567138671875 152.5674896240234 C 156.5326080322266 148.6020050048828 160.1327056884766 144.2386627197266 163.2674102783203 139.5986633300781 C 166.4316558837891 134.9149627685547 169.1493072509766 129.9081115722656 171.3448638916016 124.7172393798828 C 173.5807342529297 119.4310607910156 175.2979125976563 113.8991622924805 176.4487609863281 108.2751846313477 C 177.6299133300781 102.5029830932617 178.2288055419922 96.56111145019531 178.2288055419922 90.61460876464844 C 178.2288055419922 84.66810607910156 177.6299133300781 78.72623443603516 176.4487609863281 72.95403289794922 C 175.2979125976563 67.33005523681641 173.5807342529297 61.79815673828125 171.3448638916016 56.51198577880859 C 169.1493072509766 51.32110595703125 166.4316558837891 46.31425476074219 163.2674102783203 41.63055419921875 C 160.1327056884766 36.99055480957031 156.5326080322266 32.62721252441406 152.567138671875 28.66172790527344 C 148.6016540527344 24.69625854492188 144.2383422851563 21.09613037109375 139.5983581542969 17.96144104003906 C 134.9146423339844 14.79718017578125 129.9078063964844 12.07952880859375 124.7169647216797 9.883956909179688 C 119.4307861328125 7.648101806640625 113.8988876342773 5.930908203125 108.2749328613281 4.78009033203125 C 102.5027618408203 3.598907470703125 96.56088256835938 3.000015258789063 90.61441040039063 3.000015258789063 M 90.61441040039063 1.52587890625e-05 C 140.6593322753906 1.52587890625e-05 181.2288055419922 40.56956481933594 181.2288055419922 90.61460876464844 C 181.2288055419922 140.65966796875 140.6593322753906 181.2292022705078 90.61441040039063 181.2292022705078 C 40.5694580078125 181.2292022705078 -1.52587890625e-05 140.65966796875 -1.52587890625e-05 90.61460876464844 C -1.52587890625e-05 40.56956481933594 40.5694580078125 1.52587890625e-05 90.61441040039063 1.52587890625e-05 Z" stroke="none" fill="#e9e9e9"/>
    </g>
    <g id="Group_74678" data-name="Group 74678" transform="translate(48.159 46.059)">
      <g id="Group_74680" data-name="Group 74680" transform="translate(0 0)">
        <g id="Group_74679" data-name="Group 74679">
          <g id="Group_74678-2" data-name="Group 74678">
            <path id="Path_690" data-name="Path 690" d="M83.036,90.1H81.954V68.983a1.279,1.279,0,1,0-2.558,0V90.1H52.268V55.338H78.351A1.046,1.046,0,0,1,79.4,56.383v6.576a1.279,1.279,0,0,0,2.558,0V56.383a3.607,3.607,0,0,0-3.6-3.6H52.268V29.541a3.62,3.62,0,0,0-3.3-3.589V23.387A3.62,3.62,0,0,0,45.647,19.8L12.528,17.2a3.6,3.6,0,0,0-3.884,3.592v2.048a3.6,3.6,0,0,0-3.3,3.589V90.1H4.263a4.263,4.263,0,0,0,0,8.525H83.036a4.263,4.263,0,1,0,0-8.525ZM11.2,20.792a1.044,1.044,0,0,1,1.127-1.042l33.119,2.6a1.05,1.05,0,0,1,.963,1.042v2.364L11.2,22.991v-2.2ZM7.9,26.429a1.044,1.044,0,0,1,1.127-1.042L48.747,28.5a1.05,1.05,0,0,1,.964,1.042V90.1H46.137V71.792a2.113,2.113,0,0,0-2.111-2.111H32.146a2.113,2.113,0,0,0-2.111,2.111v8.3a1.279,1.279,0,0,0,2.558,0V72.239H43.58V90.1H32.593V86.066a1.279,1.279,0,1,0-2.558,0V90.1H7.9Zm75.134,69.64H4.263a1.705,1.705,0,0,1,0-3.41H83.036a1.705,1.705,0,0,1,0,3.41Z" transform="translate(0 -17.188)" fill="#007bcc"/>
            <path id="Path_691" data-name="Path 691" d="M65.17,122.1h5.176a2.209,2.209,0,0,0,2.207-2.207v-3.982a2.209,2.209,0,0,0-2.207-2.207H65.17a2.209,2.209,0,0,0-2.207,2.207v3.982A2.209,2.209,0,0,0,65.17,122.1Zm.351-5.838H70v3.281H65.521Z" transform="translate(-52.227 -97.246)" fill="#007bcc"/>
            <path id="Path_692" data-name="Path 692" d="M140.864,122.1h5.176a2.209,2.209,0,0,0,2.207-2.207v-3.982a2.209,2.209,0,0,0-2.207-2.207h-5.176a2.209,2.209,0,0,0-2.207,2.207v3.982A2.209,2.209,0,0,0,140.864,122.1Zm.351-5.838h4.475v3.281h-4.475Z" transform="translate(-115.015 -97.246)" fill="#007bcc"/>
            <path id="Path_693" data-name="Path 693" d="M216.557,122.1h5.176a2.209,2.209,0,0,0,2.207-2.207v-3.982a2.209,2.209,0,0,0-2.207-2.207h-5.176a2.209,2.209,0,0,0-2.207,2.207v3.982a2.209,2.209,0,0,0,2.207,2.207Zm.351-5.838h4.475v3.281h-4.475Z" transform="translate(-177.802 -97.246)" fill="#007bcc"/>
            <path id="Path_694" data-name="Path 694" d="M65.17,189.534h5.176a2.209,2.209,0,0,0,2.207-2.207v-3.983a2.209,2.209,0,0,0-2.207-2.207H65.17a2.209,2.209,0,0,0-2.207,2.207v3.982a2.209,2.209,0,0,0,2.207,2.207Zm.351-5.838H70v3.281H65.521Z" transform="translate(-52.227 -153.184)" fill="#007bcc"/>
            <path id="Path_695" data-name="Path 695" d="M140.864,189.534h5.176a2.209,2.209,0,0,0,2.207-2.207v-3.983a2.209,2.209,0,0,0-2.207-2.207h-5.176a2.209,2.209,0,0,0-2.207,2.207v3.982a2.209,2.209,0,0,0,2.207,2.207Zm.351-5.838h4.475v3.281h-4.475Z" transform="translate(-115.015 -153.184)" fill="#007bcc"/>
            <path id="Path_696" data-name="Path 696" d="M216.557,189.534h5.176a2.209,2.209,0,0,0,2.207-2.207v-3.983a2.209,2.209,0,0,0-2.207-2.207h-5.176a2.209,2.209,0,0,0-2.207,2.207v3.982a2.209,2.209,0,0,0,2.207,2.207Zm.351-5.838h4.475v3.281h-4.475Z" transform="translate(-177.802 -153.184)" fill="#007bcc"/>
            <path id="Path_697" data-name="Path 697" d="M65.17,256.971h5.176a2.209,2.209,0,0,0,2.207-2.207v-3.983a2.209,2.209,0,0,0-2.207-2.207H65.17a2.209,2.209,0,0,0-2.207,2.207v3.983A2.209,2.209,0,0,0,65.17,256.971Zm.351-5.838H70v3.281H65.521Z" transform="translate(-52.227 -209.122)" fill="#007bcc"/>
            <path id="Path_698" data-name="Path 698" d="M76.874,325.052H65.418a2.458,2.458,0,0,0-2.455,2.455v3.485a2.458,2.458,0,0,0,2.455,2.455H76.874a2.458,2.458,0,0,0,2.455-2.455v-3.485A2.458,2.458,0,0,0,76.874,325.052Zm-.1,5.838H65.521V327.61H76.772Z" transform="translate(-52.227 -272.559)" fill="#007bcc"/>
            <path id="Path_699" data-name="Path 699" d="M140.864,256.971h5.176a2.209,2.209,0,0,0,2.207-2.207v-3.983a2.209,2.209,0,0,0-2.207-2.207h-5.176a2.209,2.209,0,0,0-2.207,2.207v3.983A2.209,2.209,0,0,0,140.864,256.971Zm.351-5.838h4.475v3.281h-4.475Z" transform="translate(-115.015 -209.122)" fill="#007bcc"/>
            <path id="Path_700" data-name="Path 700" d="M216.557,256.971h5.176a2.209,2.209,0,0,0,2.207-2.207v-3.983a2.209,2.209,0,0,0-2.207-2.207h-5.176a2.209,2.209,0,0,0-2.207,2.207v3.983a2.209,2.209,0,0,0,2.207,2.207Zm.351-5.838h4.475v3.281h-4.475Z" transform="translate(-177.802 -209.122)" fill="#007bcc"/>
            <path id="Path_701" data-name="Path 701" d="M332.278,279.852a2.355,2.355,0,0,0-2.352-2.352H324.7a2.355,2.355,0,0,0-2.352,2.352v4.142a2.355,2.355,0,0,0,2.352,2.352h5.222a2.355,2.355,0,0,0,2.352-2.352Zm-2.558,3.937h-4.812v-3.732h4.812Z" transform="translate(-267.388 -233.115)" fill="#007bcc"/>
            <path id="Path_702" data-name="Path 702" d="M329.926,346.717H324.7a2.355,2.355,0,0,0-2.352,2.353v4.142a2.355,2.355,0,0,0,2.352,2.352h5.222a2.355,2.355,0,0,0,2.352-2.352V349.07A2.355,2.355,0,0,0,329.926,346.717Zm-.205,6.29h-4.812v-3.732h4.812Z" transform="translate(-267.388 -290.53)" fill="#007bcc"/>
            <path id="Path_703" data-name="Path 703" d="M402.039,279.852a2.355,2.355,0,0,0-2.353-2.352h-5.222a2.355,2.355,0,0,0-2.353,2.352v4.142a2.355,2.355,0,0,0,2.353,2.352h5.222a2.355,2.355,0,0,0,2.353-2.352Zm-2.558,3.937H394.67v-3.732h4.812Z" transform="translate(-325.255 -233.115)" fill="#007bcc"/>
            <path id="Path_704" data-name="Path 704" d="M399.686,346.717h-5.222a2.355,2.355,0,0,0-2.353,2.353v4.142a2.355,2.355,0,0,0,2.353,2.352h5.222a2.355,2.355,0,0,0,2.353-2.352V349.07A2.355,2.355,0,0,0,399.686,346.717Zm-.2,6.29H394.67v-3.732h4.812Z" transform="translate(-325.255 -290.53)" fill="#007bcc"/>
          </g>
        </g>
      </g>
      <g id="Group_74683" data-name="Group 74683" transform="translate(56.858 5.055)">
        <g id="Group_74682" data-name="Group 74682">
          <g id="Group_74681" data-name="Group 74681">
            <path id="Path_705" data-name="Path 705" d="M397.076,81.5a.449.449,0,0,0-.3-.192c-.63,0-6.048-.219-6.048-6.513a.356.356,0,1,0-.712,0c0,6.294-5.419,6.513-6.021,6.513a.311.311,0,0,0-.219.082c-.055.027-.082.082-.109.109a.407.407,0,0,0,0,.356.38.38,0,0,0,.328.191h.027c.629,0,6.021.219,6.021,6.513a.356.356,0,0,0,.712,0c0-6.267,5.391-6.513,6.021-6.513a.417.417,0,0,0,.328-.191A.336.336,0,0,0,397.076,81.5Zm-6.705,4.379a6.246,6.246,0,0,0-4.269-4.214,6.246,6.246,0,0,0,4.269-4.214,6.247,6.247,0,0,0,4.269,4.214A6.247,6.247,0,0,0,390.371,85.88Z" transform="translate(-375.073 -69.734)" fill="#007bcc"/>
            <path id="Path_706" data-name="Path 706" d="M359.561,51.487a.369.369,0,0,0,.356-.383.362.362,0,0,0-.356-.356,3.242,3.242,0,0,1-3.284-3.558.356.356,0,1,0-.712,0,3.242,3.242,0,0,1-3.284,3.558h-.028a.357.357,0,0,0-.328.356.362.362,0,0,0,.356.356,3.23,3.23,0,0,1,3.284,3.558.362.362,0,0,0,.356.356.316.316,0,0,0,.328-.328,3.242,3.242,0,0,1,3.284-3.558Zm-3.667,1.56a3.67,3.67,0,0,0-1.97-1.943,3.681,3.681,0,0,0,1.97-1.943,3.67,3.67,0,0,0,1.97,1.943A3.682,3.682,0,0,0,355.894,53.047Z" transform="translate(-348.779 -46.835)" fill="#007bcc"/>
            <path id="Path_707" data-name="Path 707" d="M341.1,123.135a3.242,3.242,0,0,1-3.284-3.558.356.356,0,0,0-.712,0,3.242,3.242,0,0,1-3.284,3.558H333.8a.357.357,0,0,0-.328.356.362.362,0,0,0,.356.356,3.23,3.23,0,0,1,3.284,3.558.362.362,0,0,0,.356.356c.164.055.328-.109.328-.328a3.242,3.242,0,0,1,3.284-3.558h.027a.369.369,0,0,0,.356-.383A.362.362,0,0,0,341.1,123.135Zm-3.667,2.326a3.76,3.76,0,0,0-1.97-1.943,3.681,3.681,0,0,0,1.97-1.943,3.671,3.671,0,0,0,1.971,1.943A3.683,3.683,0,0,0,337.437,125.462Z" transform="translate(-333.469 -106.88)" fill="#007bcc"/>
          </g>
        </g>
      </g>
    </g>
  </g>
</svg>
