<svg xmlns="http://www.w3.org/2000/svg" width="181.229" height="181.229" viewBox="0 0 181.229 181.229">
  <g id="Group_74847" data-name="Group 74847" transform="translate(0)">
    <g id="Path_744" data-name="Path 744" transform="translate(0 0)" fill="#fff">
      <path d="M 90.61441040039063 179.7292327880859 C 84.56712341308594 179.7292327880859 78.52410125732422 179.1200866699219 72.65317535400391 177.918701171875 C 66.93219757080078 176.7480316162109 61.30488586425781 175.0012054443359 55.92752838134766 172.7267761230469 C 50.64745712280273 170.4934844970703 45.55469512939453 167.7292022705078 40.79074478149414 164.5107574462891 C 36.07167053222656 161.3225860595703 31.63400650024414 157.6611633300781 27.60100555419922 153.6281585693359 C 23.56802940368652 149.5951843261719 19.90660095214844 145.1574859619141 16.71845817565918 140.4384002685547 C 13.49998188018799 135.6744232177734 10.73571968078613 130.5816497802734 8.502433776855469 125.3015823364258 C 6.228005409240723 119.924201965332 4.48119592666626 114.2968673706055 3.310505628585815 108.5758972167969 C 2.109148502349854 102.704963684082 1.500005602836609 96.66189575195313 1.500005602836609 90.61460876464844 C 1.500005602836609 84.56732177734375 2.109148502349854 78.52427673339844 3.310505628585815 72.6533203125 C 4.48119592666626 66.93235015869141 6.228005409240723 61.30501174926758 8.502433776855469 55.92765808105469 C 10.73571968078613 50.64756011962891 13.49998188018799 45.5547981262207 16.71845817565918 40.79084777832031 C 19.90660095214844 36.07175064086914 23.56802940368652 31.63406181335449 27.60100555419922 27.6010856628418 C 31.63400650024414 23.56808471679688 36.07167053222656 19.90665626525879 40.79074478149414 16.71849060058594 C 45.55469512939453 13.50003719329834 50.64745712280273 10.73575115203857 55.92752838134766 8.502466201782227 C 61.30488586425781 6.228037357330322 66.93219757080078 4.481204032897949 72.65317535400391 3.310537338256836 C 78.52410125732422 2.109156370162964 84.56712341308594 1.500013470649719 90.61441040039063 1.500013470649719 C 96.66169738769531 1.500013470649719 102.704719543457 2.109156370162964 108.5756454467773 3.310537338256836 C 114.2966003417969 4.481204032897949 119.9239349365234 6.228037357330322 125.3012924194336 8.502466201782227 C 130.5813598632813 10.73575115203857 135.6741027832031 13.50003719329834 140.4380493164063 16.71849060058594 C 145.1571502685547 19.90665626525879 149.5948181152344 23.56808471679688 153.6277923583984 27.6010856628418 C 157.6607971191406 31.63406181335449 161.3221893310547 36.07175064086914 164.5103607177734 40.79084777832031 C 167.7288208007813 45.5547981262207 170.4931030273438 50.64756011962891 172.7263793945313 55.92765808105469 C 175.0008087158203 61.30501174926758 176.7476196289063 66.93235015869141 177.9183197021484 72.6533203125 C 179.1196746826172 78.52427673339844 179.7288208007813 84.56732177734375 179.7288208007813 90.61460876464844 C 179.7288208007813 96.66189575195313 179.1196746826172 102.704963684082 177.9183197021484 108.5758972167969 C 176.7476196289063 114.2968673706055 175.0008087158203 119.924201965332 172.7263793945313 125.3015823364258 C 170.4931030273438 130.5816497802734 167.7288208007813 135.6744232177734 164.5103607177734 140.4384002685547 C 161.3221893310547 145.1574859619141 157.6607971191406 149.5951843261719 153.6277923583984 153.6281585693359 C 149.5948181152344 157.6611633300781 145.1571502685547 161.3225860595703 140.4380493164063 164.5107574462891 C 135.6741027832031 167.7292022705078 130.5813598632813 170.4934844970703 125.3012924194336 172.7267761230469 C 119.9239349365234 175.0012054443359 114.2966003417969 176.7480316162109 108.5756454467773 177.918701171875 C 102.704719543457 179.1200866699219 96.66169738769531 179.7292327880859 90.61441040039063 179.7292327880859 Z" stroke="none"/>
      <path d="M 90.61441040039063 3.000015258789063 C 84.66793823242188 3.000015258789063 78.72605895996094 3.598907470703125 72.95388793945313 4.78009033203125 C 67.32991027832031 5.930908203125 61.79801177978516 7.648101806640625 56.51186370849609 9.883956909179688 C 51.32098388671875 12.07952880859375 46.31416320800781 14.79718017578125 41.63046264648438 17.96144104003906 C 36.990478515625 21.09613037109375 32.62713623046875 24.69625854492188 28.66166687011719 28.66172790527344 C 24.69618225097656 32.62721252441406 21.09608459472656 36.99055480957031 17.96138000488281 41.63055419921875 C 14.79713439941406 46.31425476074219 12.07948303222656 51.32110595703125 9.883941650390625 56.51198577880859 C 7.648056030273438 61.79815673828125 5.930892944335938 67.33005523681641 4.780029296875 72.95403289794922 C 3.598892211914063 78.72623443603516 2.999984741210938 84.66810607910156 2.999984741210938 90.61460876464844 C 2.999984741210938 96.56111145019531 3.598892211914063 102.5029830932617 4.780029296875 108.2751846313477 C 5.930892944335938 113.8991622924805 7.648056030273438 119.4310607910156 9.883941650390625 124.7172393798828 C 12.07948303222656 129.9081115722656 14.79713439941406 134.9149627685547 17.96138000488281 139.5986633300781 C 21.09608459472656 144.2386627197266 24.69618225097656 148.6020050048828 28.66166687011719 152.5674896240234 C 32.62713623046875 156.532958984375 36.990478515625 160.1330871582031 41.63046264648438 163.2677917480469 C 46.31416320800781 166.4320373535156 51.32098388671875 169.1496887207031 56.51186370849609 171.3452606201172 C 61.79801177978516 173.5811157226563 67.32991027832031 175.2983093261719 72.95388793945313 176.4491271972656 C 78.72605895996094 177.6303100585938 84.66793823242188 178.2292022705078 90.61441040039063 178.2292022705078 C 96.56088256835938 178.2292022705078 102.5027618408203 177.6303100585938 108.2749328613281 176.4491271972656 C 113.8988876342773 175.2983093261719 119.4307861328125 173.5811157226563 124.7169647216797 171.3452606201172 C 129.9078063964844 169.1496887207031 134.9146423339844 166.4320373535156 139.5983581542969 163.2677917480469 C 144.2383422851563 160.1330871582031 148.6016540527344 156.532958984375 152.567138671875 152.5674896240234 C 156.5326080322266 148.6020050048828 160.1327056884766 144.2386627197266 163.2674102783203 139.5986633300781 C 166.4316558837891 134.9149627685547 169.1493072509766 129.9081115722656 171.3448638916016 124.7172393798828 C 173.5807342529297 119.4310607910156 175.2979125976563 113.8991622924805 176.4487609863281 108.2751846313477 C 177.6299133300781 102.5029830932617 178.2288055419922 96.56111145019531 178.2288055419922 90.61460876464844 C 178.2288055419922 84.66810607910156 177.6299133300781 78.72623443603516 176.4487609863281 72.95403289794922 C 175.2979125976563 67.33005523681641 173.5807342529297 61.79815673828125 171.3448638916016 56.51198577880859 C 169.1493072509766 51.32110595703125 166.4316558837891 46.31425476074219 163.2674102783203 41.63055419921875 C 160.1327056884766 36.99055480957031 156.5326080322266 32.62721252441406 152.567138671875 28.66172790527344 C 148.6016540527344 24.69625854492188 144.2383422851563 21.09613037109375 139.5983581542969 17.96144104003906 C 134.9146423339844 14.79718017578125 129.9078063964844 12.07952880859375 124.7169647216797 9.883956909179688 C 119.4307861328125 7.648101806640625 113.8988876342773 5.930908203125 108.2749328613281 4.78009033203125 C 102.5027618408203 3.598907470703125 96.56088256835938 3.000015258789063 90.61441040039063 3.000015258789063 M 90.61441040039063 1.52587890625e-05 C 140.6593322753906 1.52587890625e-05 181.2288055419922 40.56956481933594 181.2288055419922 90.61460876464844 C 181.2288055419922 140.65966796875 140.6593322753906 181.2292022705078 90.61441040039063 181.2292022705078 C 40.5694580078125 181.2292022705078 -1.52587890625e-05 140.65966796875 -1.52587890625e-05 90.61460876464844 C -1.52587890625e-05 40.56956481933594 40.5694580078125 1.52587890625e-05 90.61441040039063 1.52587890625e-05 Z" stroke="none" fill="#e9e9e9"/>
    </g>
    <g id="Group_74699" data-name="Group 74699" transform="translate(46.678 62.848)">
      <g id="Group_74698" data-name="Group 74698" transform="translate(0 0)">
        <path id="Path_708" data-name="Path 708" d="M86.474,119.71,78.34,96.536a1.691,1.691,0,0,0-1.927-1.1l-8.471,1.695L53.051,92.7a8.425,8.425,0,0,0-7.16.514l-2.654,1.532-2.654-1.532a8.425,8.425,0,0,0-7.16-.514L18.586,97.117l-7.7-2.032A1.691,1.691,0,0,0,8.87,96.123L.109,119.344A1.691,1.691,0,0,0,.845,121.4l7.284,4.205a5.856,5.856,0,0,0,5.863,8.148,5.857,5.857,0,0,0,8.294,5.2,5.847,5.847,0,0,0,6.929,3.415,5.93,5.93,0,0,0,1.265-.5,5.849,5.849,0,0,0,5.3,3.377A5.893,5.893,0,0,0,39.64,143.8l5.14,2.968a5.86,5.86,0,0,0,8.772-4.6,5.859,5.859,0,0,0,8.253-5.376,5.86,5.86,0,0,0,6.545-5.421,5.859,5.859,0,0,0,7.79-6.021l9.332-3.5a1.691,1.691,0,0,0,1-2.143Zm-74.2,10.355a2.492,2.492,0,0,1-.907-3.387l2.361-4.089a2.48,2.48,0,0,1,4.3,2.476l-2.364,4.095h0a2.483,2.483,0,0,1-3.385.9Zm9.723,4.8a2.48,2.48,0,0,1-4.3-2.479l.884-1.531h0l2.366-4.1h0v0h0l2.087-3.616a2.48,2.48,0,0,1,4.295,2.48l-.622,1.078,0,.006h0l-4.088,7.08h0v0Zm7.849,3.087a2.48,2.48,0,0,1-4.3-2.476l0,0h0v0l4.087-7.078h0a2.48,2.48,0,0,1,4.295,2.479l-.863,1.5h0l-2.36,4.089h0l0,.005Zm4.7,3.581a2.491,2.491,0,0,1-.908-3.387L36,134.058a2.48,2.48,0,1,1,4.295,2.48l-2.361,4.089A2.482,2.482,0,0,1,34.547,141.535Zm15.311,1.4a2.483,2.483,0,0,1-3.387.908L41.6,141.033l1.619-2.8a5.846,5.846,0,0,0,.637-1.62l5.09,2.939h0l0,0a2.483,2.483,0,0,1,.9,3.384ZM74.9,122.2a5.831,5.831,0,0,0-1.664-1.437c-.618-.357-2.866-1.708-6.87-4.129a1.691,1.691,0,1,0-1.75,2.894c4.025,2.434,6.291,3.8,6.929,4.164a2.48,2.48,0,0,1-2.48,4.3L65.439,125.9l0,0h0l-13.456-7.769a1.691,1.691,0,1,0-1.691,2.929l13.454,7.768h0l0,0a2.48,2.48,0,0,1-2.485,4.292l-2.381-1.375,0,0h0l-11.813-6.82a1.691,1.691,0,1,0-1.691,2.928l11.812,6.819h0a2.48,2.48,0,0,1-2.48,4.295l-4.057-2.343-.006,0h0l-7.451-4.3a5.846,5.846,0,0,0-5.546-2.856,5.934,5.934,0,0,0-.2-1.345,5.847,5.847,0,0,0-6.422-4.293,5.965,5.965,0,0,0-.175-.961,5.856,5.856,0,0,0-10.106-2.3,5.866,5.866,0,0,0-9.941.337L9.783,122.66l-6-3.466,7.716-20.45,6.687,1.764a1.693,1.693,0,0,0,.913-.014l15.292-4.549c1.779-.529,3.024-.654,4.5.2l.963.556-5.923,3.42a5.911,5.911,0,0,0-2.161,8.065A5.991,5.991,0,0,0,39.74,110.4c1.6-.788,3.917-1.832,5.666-2.5,1.277.769,4.142,2.506,6.187,3.745a1.691,1.691,0,0,0,1.753-2.892c-1.966-1.192-3.685-2.233-4.914-2.976l-1.449-.875c-.749-.45-.927-.557-1.4-.557a1.691,1.691,0,0,0-.557.094,70.206,70.206,0,0,0-6.782,2.927A2.65,2.65,0,0,1,34.7,106.5a2.525,2.525,0,0,1,.923-3.446l11.959-6.9c1.481-.855,2.726-.73,4.5-.2l15.292,4.549a1.69,1.69,0,0,0,.814.037l7.443-1.489,7.1,20.226Z" transform="translate(0 -92.144)" fill="#007bcc"/>
        <path id="Path_709" data-name="Path 709" d="M340.5,212.26h0a1.691,1.691,0,1,0,1.692,1.691A1.69,1.69,0,0,0,340.5,212.26Z" transform="translate(-281.522 -191.951)" fill="#007bcc"/>
      </g>
    </g>
  </g>
</svg>
