<svg xmlns="http://www.w3.org/2000/svg" width="283" height="274" viewBox="0 0 283 274">
  <g id="Group_74700" data-name="Group 74700" transform="translate(-373 -2916)">
    <g id="Group_74699" data-name="Group 74699" transform="translate(413 2895.855)">
      <g id="Group_74698" data-name="Group 74698" transform="translate(0 92.144)">
        <path id="Path_708" data-name="Path 708" d="M203.773,157.1l-19.167-54.61a3.985,3.985,0,0,0-4.541-2.587L160.1,103.9,125.014,93.461c-5.065-1.507-10.614-2.4-16.872,1.21l-6.253,3.611-6.254-3.611c-6.258-3.613-11.808-2.717-16.872-1.21L43.8,103.863,25.646,99.074A3.985,3.985,0,0,0,20.9,101.52L.257,156.239A3.984,3.984,0,0,0,1.992,161.1L19.156,171a13.8,13.8,0,0,0,13.816,19.2,13.8,13.8,0,0,0,19.545,12.248A13.778,13.778,0,0,0,68.845,210.5a13.975,13.975,0,0,0,2.981-1.177,13.783,13.783,0,0,0,12.48,7.958,13.887,13.887,0,0,0,9.1-3.4l12.112,6.993a13.81,13.81,0,0,0,20.671-10.844,13.807,13.807,0,0,0,19.448-12.669,13.809,13.809,0,0,0,15.422-12.774,13.806,13.806,0,0,0,18.356-14.188l21.99-8.24a3.984,3.984,0,0,0,2.362-5.05Zm-174.847,24.4a5.872,5.872,0,0,1-2.138-7.982l5.563-9.636a5.843,5.843,0,0,1,10.125,5.835l-5.571,9.649v0a5.852,5.852,0,0,1-7.977,2.132Zm22.912,11.311a5.843,5.843,0,0,1-10.121-5.843l2.083-3.608v0l5.576-9.657,0,0,0,0h0l4.919-8.52a5.843,5.843,0,0,1,10.121,5.843l-1.467,2.54-.008.013v0l-9.633,16.685h0l0,0Zm18.5,7.275a5.843,5.843,0,0,1-10.125-5.836l0-.007h0l0,0,9.63-16.68,0,0a5.843,5.843,0,0,1,10.12,5.843l-2.035,3.525v0l-5.562,9.635h0l-.007.012Zm11.075,8.44a5.871,5.871,0,0,1-2.139-7.982l5.563-9.636a5.843,5.843,0,1,1,10.121,5.843l-5.563,9.636A5.849,5.849,0,0,1,81.409,208.531Zm36.08,3.3a5.851,5.851,0,0,1-7.982,2.139l-11.466-6.62,3.814-6.607a13.775,13.775,0,0,0,1.5-3.819l11.995,6.925h0l.011.006a5.85,5.85,0,0,1,2.125,7.974Zm59-48.848a13.741,13.741,0,0,0-3.922-3.387c-1.457-.841-6.753-4.024-16.19-9.73a3.984,3.984,0,1,0-4.123,6.819c9.484,5.735,14.825,8.945,16.329,9.813a5.843,5.843,0,0,1-5.843,10.121l-8.536-4.929-.008,0h0l-31.708-18.307a3.984,3.984,0,0,0-3.984,6.9l31.7,18.3h0l.008,0a5.843,5.843,0,0,1-5.855,10.114l-5.611-3.239-.01-.006h0l-27.836-16.071a3.984,3.984,0,0,0-3.984,6.9l27.834,16.069h0a5.843,5.843,0,0,1-5.845,10.12l-9.561-5.52-.014-.008h0L101.778,186.81a13.776,13.776,0,0,0-13.069-6.731,13.984,13.984,0,0,0-.472-3.169A13.778,13.778,0,0,0,73.1,166.794a14.059,14.059,0,0,0-.413-2.265,13.8,13.8,0,0,0-23.815-5.421,13.823,13.823,0,0,0-23.425.794l-2.4,4.15L8.906,155.886,27.088,107.7l15.759,4.156A3.989,3.989,0,0,0,45,111.819L81.034,101.1c4.193-1.247,7.126-1.541,10.616.473l2.269,1.31L79.96,110.942a13.929,13.929,0,0,0-5.092,19.005c3.71,6.427,11.783,8.67,18.777,5.214,3.76-1.857,9.23-4.317,13.353-5.887,3.01,1.813,9.76,5.9,14.579,8.825a3.984,3.984,0,0,0,4.131-6.815c-4.634-2.809-8.683-5.262-11.579-7.013-1.451-.877-2.613-1.579-3.415-2.061-1.765-1.061-2.183-1.313-3.3-1.313a3.985,3.985,0,0,0-1.312.222,165.458,165.458,0,0,0-15.982,6.9c-3.177,1.568-6.765.686-8.347-2.054a5.951,5.951,0,0,1,2.175-8.12l28.181-16.27c3.49-2.015,6.424-1.72,10.616-.473l36.035,10.72a3.982,3.982,0,0,0,1.918.088l17.539-3.509,16.728,47.662Z" transform="translate(0 -92.144)" fill="#007bcc"/>
        <path id="Path_709" data-name="Path 709" d="M342.794,212.26h0a3.984,3.984,0,1,0,3.988,3.984A3.983,3.983,0,0,0,342.791,212.26Z" transform="translate(-203.814 -164.402)" fill="#007bcc"/>
      </g>
    </g>
    <ellipse id="Ellipse_79" data-name="Ellipse 79" cx="141.5" cy="137" rx="141.5" ry="137" transform="translate(373 2916)" fill="#007bcc" opacity="0.1"/>
  </g>
</svg>
