<svg xmlns="http://www.w3.org/2000/svg" width="283" height="274" viewBox="0 0 283 274">
  <g id="Group_74675" data-name="Group 74675" transform="translate(-333 -1971)">
    <ellipse id="Ellipse_77" data-name="Ellipse 77" cx="141.5" cy="137" rx="141.5" ry="137" transform="translate(333 1971)" fill="#007bcc" opacity="0.1"/>
    <g id="Group_74673" data-name="Group 74673" transform="translate(397 2030.92)">
      <path id="Path_679" data-name="Path 679" d="M284.262,101.754A7.713,7.713,0,0,0,270.13,99.9l-1.285,2.235a2.569,2.569,0,0,0-3.494.926l-6.526,11.124-2.236-1.285a2.567,2.567,0,1,0-2.57,4.445l2.236,1.285-21.84,37.848-5.4,14.415-2.57,4.8a7.709,7.709,0,0,0,.411,8.326l-5.781,7.091-1.618-4.058a5.139,5.139,0,0,0-9.173-.72l-.925,1.567-.873-10.278a5.139,5.139,0,0,0-10-1.207l-6.321,18.962a2.569,2.569,0,0,0,1.618,3.238,2.222,2.222,0,0,0,.8.2,2.569,2.569,0,0,0,2.441-1.746l6.295-18.962.9,10.431a5.139,5.139,0,0,0,9.532,2.21l.951-1.568,1.593,4.035a5.138,5.138,0,0,0,8.787,1.31l5.987-7.579a7.913,7.913,0,0,0,2.03.257,7.709,7.709,0,0,0,6.706-3.8l2.569-4.291,9.79-11.9,22.071-38.311,2.235,1.285a2.576,2.576,0,0,1,.951,3.52L267.15,151.525a2.551,2.551,0,1,0,4.342,2.672l10.278-17.807a7.706,7.706,0,0,0-2.827-10.535l-2.236-1.285,6.424-11.126a2.571,2.571,0,0,0-.925-3.494l1.285-2.235A7.709,7.709,0,0,0,284.262,101.754Zm-9.687.719a2.569,2.569,0,0,1,1.568-1.207,2.7,2.7,0,0,1,1.952.257,2.572,2.572,0,0,1,1.208,1.567,2.7,2.7,0,0,1-.257,1.952l-1.285,2.236-4.472-2.57Zm-35.021,71.739-1.285-.745-3.8-2.21,3.648-9.763,8.093,4.676Zm-7.708,7.425a2.568,2.568,0,0,1-.77-3.366l1.285-2.235,4.47,2.57-1.285,2.209a2.569,2.569,0,0,1-3.7.822Zm17.292-19.681-8.89-5.139L260.8,121.2l8.89,5.139ZM272.263,121.9l-8.89-5.139,5.139-8.89,8.89,5.139Z" transform="translate(-130.353 -65.137)" fill="#007bcc"/>
      <path id="Path_680" data-name="Path 680" d="M86.227,357.194l-9.095,9.071-5.447-5.448a2.571,2.571,0,1,0-3.623,3.648l5.447,5.447a5.18,5.18,0,0,0,7.272,0l9.069-9.1a2.57,2.57,0,0,0-3.623-3.623Z" transform="translate(-45.682 -241.978)" fill="#007bcc"/>
      <path id="Path_681" data-name="Path 681" d="M32,333.869a21.84,21.84,0,1,0,43.68,0,2.569,2.569,0,0,0-5.139,0,16.7,16.7,0,1,1-6.681-13.36,2.57,2.57,0,0,0,3.084-4.111A21.84,21.84,0,0,0,32,333.869Z" transform="translate(-21.717 -211.741)" fill="#007bcc"/>
      <path id="Path_682" data-name="Path 682" d="M141.363,53.211a2.569,2.569,0,1,0,0-5.139H74.557a2.569,2.569,0,0,0-2.569,2.569V60.919a2.569,2.569,0,0,0,2.569,2.57h66.805a2.57,2.57,0,1,0,0-5.139H77.127V53.211Z" transform="translate(-48.863 -32.575)" fill="#007bcc"/>
      <path id="Path_683" data-name="Path 683" d="M98.553,112.061a2.569,2.569,0,0,0,0,5.139h51.389a2.569,2.569,0,1,0,0-5.139Z" transform="translate(-65.151 -76.009)" fill="#007bcc"/>
      <path id="Path_684" data-name="Path 684" d="M187.075,168.051H130.548a2.57,2.57,0,1,0,0,5.139h56.527a2.57,2.57,0,1,0,0-5.139Z" transform="translate(-86.867 -114.013)" fill="#007bcc"/>
      <path id="Path_685" data-name="Path 685" d="M112.517,218.613a2.57,2.57,0,0,0-2.569-2.57H58.56a2.569,2.569,0,1,0,0,5.139h51.389A2.568,2.568,0,0,0,112.517,218.613Z" transform="translate(-38.004 -146.588)" fill="#007bcc"/>
      <path id="Path_686" data-name="Path 686" d="M268.513,216.043H250.527a2.569,2.569,0,0,0,0,5.139h17.986a2.569,2.569,0,1,0,0-5.139Z" transform="translate(-168.306 -146.588)" fill="#007bcc"/>
      <path id="Path_687" data-name="Path 687" d="M84.254,261.175a2.57,2.57,0,0,0,0-5.139H58.56a2.57,2.57,0,1,0,0,5.139Z" transform="translate(-38.004 -173.734)" fill="#007bcc"/>
      <path id="Path_688" data-name="Path 688" d="M170.541,261.175h17.986a2.57,2.57,0,0,0,0-5.139H170.541a2.57,2.57,0,1,0,0,5.139Z" transform="translate(-114.013 -173.734)" fill="#007bcc"/>
      <path id="Path_689" data-name="Path 689" d="M115.624,118.274a2.57,2.57,0,0,0-2.57,2.57v25.694a2.569,2.569,0,0,1-2.57,2.57H7.708a2.569,2.569,0,0,1-2.57-2.57V7.788a2.57,2.57,0,0,1,2.57-2.57H110.485a2.57,2.57,0,0,1,2.57,2.57V56.043a2.569,2.569,0,1,0,5.139,0V7.788A7.709,7.709,0,0,0,110.485.08H7.708A7.709,7.709,0,0,0,0,7.788V146.537a7.708,7.708,0,0,0,7.708,7.708H110.485a7.708,7.708,0,0,0,7.708-7.708V120.843A2.57,2.57,0,0,0,115.624,118.274Z" transform="translate(0 0)" fill="#007bcc"/>
    </g>
  </g>
</svg>
