<svg xmlns="http://www.w3.org/2000/svg" width="283" height="274" viewBox="0 0 283 274">
  <g id="Group_74676" data-name="Group 74676" transform="translate(-1252 -1588)">
    <g id="presentation_" transform="translate(1311.168 1640.175)">
      <path id="Path_675" data-name="Path 675" d="M256.305,241.739a4.465,4.465,0,0,0-6.751-2.182l-13.177,9.13a29.144,29.144,0,1,0,3.09,4.379l12.177-8.441,5.619,15.917a4.465,4.465,0,0,0,7.18,1.85l37.4-33.291,1.354,1.786a.714.714,0,0,0,1.222-.146l4.644-10.559a.714.714,0,0,0-.757-1.007l-11.409,1.693a.714.714,0,0,0-.464,1.139l2.143,2.822-36.706,32.677ZM214.2,291.389a23.816,23.816,0,1,0,0-.014Z" transform="translate(-166.316 -186.176)" fill="#007bcc"/>
      <path id="Path_676" data-name="Path 676" d="M323.5,422.983a2.679,2.679,0,0,0,5.358,0,9.1,9.1,0,0,0-8.037-9.03V413a2.679,2.679,0,0,0-5.358,0v.95a9.105,9.105,0,0,0-8.037,9.03v.268a9.109,9.109,0,0,0,8.037,9.034v7.651a3.743,3.743,0,0,1-2.679-3.572,2.679,2.679,0,0,0-5.358,0,9.1,9.1,0,0,0,8.037,9.03v1.429a2.679,2.679,0,0,0,5.358,0v-1.429a9.105,9.105,0,0,0,8.037-9.03v-.289a9.109,9.109,0,0,0-8.037-9.034V419.4a3.743,3.743,0,0,1,2.679,3.572Zm-8.037,3.851a3.743,3.743,0,0,1-2.679-3.572v-.268a3.743,3.743,0,0,1,2.679-3.572Zm8.037,9.251v.264a3.743,3.743,0,0,1-2.679,3.572V432.5a3.743,3.743,0,0,1,2.679,3.572Z" transform="translate(-270.262 -348.56)" fill="#007bcc"/>
      <path id="Path_677" data-name="Path 677" d="M219.134,21.471a6.037,6.037,0,0,0,6.047-6.012V6.012A6.037,6.037,0,0,0,219.134,0H66.56a6.037,6.037,0,0,0-6.047,6.012V15.46a6.037,6.037,0,0,0,6.047,6.012h1.275V54.155a2.679,2.679,0,0,0,5.358,0V21.471H212.5v109.66h-41.01l1.85-1.829a5.3,5.3,0,0,0,1.586-3.8h0a5.3,5.3,0,0,0-1.586-3.8l-6.944-6.873a5.408,5.408,0,0,0-7.6,0l-2.761,2.733a30.767,30.767,0,0,0-2.893-1.189v-3.858h0a5.379,5.379,0,0,0-5.39-5.358h-9.816a5.379,5.379,0,0,0-5.39,5.358h0v3.829a30.775,30.775,0,0,0-2.893,1.189l-2.761-2.733a5.4,5.4,0,0,0-7.6,0l-6.94,6.869a5.337,5.337,0,0,0,0,7.6l1.85,1.829H73.193V66.657a2.679,2.679,0,1,0-5.358,0v64.457H66.56a6.037,6.037,0,0,0-6.047,6.012v9.448a6.037,6.037,0,0,0,6.047,6.012h38.8A5.387,5.387,0,0,0,110,155.246h3.911a29.068,29.068,0,0,0,1.182,2.822l-2.736,2.7a5.358,5.358,0,0,0,0,7.6l6.944,6.869a5.4,5.4,0,0,0,7.6,0l2.761-2.733a29.829,29.829,0,0,0,2.893,1.189v3.829a5.379,5.379,0,0,0,5.39,5.358h9.816a5.379,5.379,0,0,0,5.39-5.358V173.7a30.769,30.769,0,0,0,2.893-1.189l2.761,2.733a5.358,5.358,0,0,0,3.015,1.5,2.682,2.682,0,1,0,.754-5.312l-4.14-4.1a2.683,2.683,0,0,0-3.186-.436,25.468,25.468,0,0,1-5.5,2.254,2.683,2.683,0,0,0-1.957,2.583v5.79a.043.043,0,0,1-.036,0h-9.852v-5.79a2.675,2.675,0,0,0-1.957-2.579,25.433,25.433,0,0,1-5.5-2.257,2.683,2.683,0,0,0-3.186.436l-4.14,4.1,1.886,1.9-8.891-8.755,4.14-4.1a2.679,2.679,0,0,0,.446-3.215,24.707,24.707,0,0,1-2.275-5.426,2.683,2.683,0,0,0-2.575-1.947h-5.872v-9.716h5.883a2.683,2.683,0,0,0,2.575-1.947A25.248,25.248,0,0,1,120.7,132.8a2.679,2.679,0,0,0-.446-3.215l-4.14-4.079c.039-.036,6.93-6.858,6.969-6.89l4.176,4.119a2.675,2.675,0,0,0,1.943.772c1-.021,1.157-.4,3.243-1.332a39.535,39.535,0,0,1,3.911-1.429,2.7,2.7,0,0,0,1.543-2.425v-5.772a.043.043,0,0,1,.036,0h9.848v5.79a2.7,2.7,0,0,0,1.957,2.583,25.29,25.29,0,0,1,5.5,2.254,2.683,2.683,0,0,0,3.186-.436c.036-.039,4.122-4.086,4.165-4.118l6.98,6.872-4.14,4.1a2.672,2.672,0,0,0-.447,3.215,25.362,25.362,0,0,1,2.279,5.433,2.679,2.679,0,0,0,2.575,1.947h5.872v9.705a.032.032,0,0,1-.029,0h-5.844a2.679,2.679,0,0,0-2.575,1.947,24.877,24.877,0,0,1-2.268,5.426,2.679,2.679,0,0,0,.447,3.215l4.14,4.076h0a2.679,2.679,0,1,0,4.054,3.5,5.358,5.358,0,0,0-.286-7.29l-2.736-2.708a30.393,30.393,0,0,0,1.182-2.822h3.9a5.386,5.386,0,0,0,4.644-2.661h38.8a6.037,6.037,0,0,0,6.047-6.012v-9.437a6.037,6.037,0,0,0-6.047-6.012h-1.275V21.471Zm-114.507,118.7v7.055H66.56a.675.675,0,0,1-.689-.654v-9.448a.675.675,0,0,1,.689-.654h39.553A5.412,5.412,0,0,0,104.627,140.172Zm114.514-3.7a.675.675,0,0,1,.689.654v9.448a.675.675,0,0,1-.689.654H181.067v-7.055a5.308,5.308,0,0,0-1.5-3.7ZM65.871,15.46V6.012a.675.675,0,0,1,.689-.654H219.134a.675.675,0,0,1,.689.654V15.46a.675.675,0,0,1-.689.654C56.026,16.113,65.871,16.431,65.871,15.46Z" transform="translate(-60.513 0)" fill="#007bcc"/>
      <path id="Path_678" data-name="Path 678" d="M527.249,868.226a14.342,14.342,0,1,0,14.463,14.334A14.342,14.342,0,0,0,527.249,868.226Zm0,23.325a8.984,8.984,0,1,1,9.1-8.991A8.984,8.984,0,0,1,527.249,891.551Z" transform="translate(-444.915 -737.538)" fill="#007bcc"/>
    </g>
    <ellipse id="Ellipse_76" data-name="Ellipse 76" cx="141.5" cy="137" rx="141.5" ry="137" transform="translate(1252 1588)" fill="#007bcc" opacity="0.1"/>
  </g>
</svg>
