<svg xmlns="http://www.w3.org/2000/svg" width="181.229" height="181.229" viewBox="0 0 181.229 181.229">
  <g id="Group_74837" data-name="Group 74837" transform="translate(0)">
    <g id="Path_744" data-name="Path 744" transform="translate(0 0)" fill="#fff">
      <path d="M 90.61441040039063 179.7292327880859 C 84.56712341308594 179.7292327880859 78.52410125732422 179.1200866699219 72.65317535400391 177.918701171875 C 66.93219757080078 176.7480316162109 61.30488586425781 175.0012054443359 55.92752838134766 172.7267761230469 C 50.64745712280273 170.4934844970703 45.55469512939453 167.7292022705078 40.79074478149414 164.5107574462891 C 36.07167053222656 161.3225860595703 31.63400650024414 157.6611633300781 27.60100555419922 153.6281585693359 C 23.56802940368652 149.5951843261719 19.90660095214844 145.1574859619141 16.71845817565918 140.4384002685547 C 13.49998188018799 135.6744232177734 10.73571968078613 130.5816497802734 8.502433776855469 125.3015823364258 C 6.228005409240723 119.924201965332 4.48119592666626 114.2968673706055 3.310505628585815 108.5758972167969 C 2.109148502349854 102.704963684082 1.500005602836609 96.66189575195313 1.500005602836609 90.61460876464844 C 1.500005602836609 84.56732177734375 2.109148502349854 78.52427673339844 3.310505628585815 72.6533203125 C 4.48119592666626 66.93235015869141 6.228005409240723 61.30501174926758 8.502433776855469 55.92765808105469 C 10.73571968078613 50.64756011962891 13.49998188018799 45.5547981262207 16.71845817565918 40.79084777832031 C 19.90660095214844 36.07175064086914 23.56802940368652 31.63406181335449 27.60100555419922 27.6010856628418 C 31.63400650024414 23.56808471679688 36.07167053222656 19.90665626525879 40.79074478149414 16.71849060058594 C 45.55469512939453 13.50003719329834 50.64745712280273 10.73575115203857 55.92752838134766 8.502466201782227 C 61.30488586425781 6.228037357330322 66.93219757080078 4.481204032897949 72.65317535400391 3.310537338256836 C 78.52410125732422 2.109156370162964 84.56712341308594 1.500013470649719 90.61441040039063 1.500013470649719 C 96.66169738769531 1.500013470649719 102.704719543457 2.109156370162964 108.5756454467773 3.310537338256836 C 114.2966003417969 4.481204032897949 119.9239349365234 6.228037357330322 125.3012924194336 8.502466201782227 C 130.5813598632813 10.73575115203857 135.6741027832031 13.50003719329834 140.4380493164063 16.71849060058594 C 145.1571502685547 19.90665626525879 149.5948181152344 23.56808471679688 153.6277923583984 27.6010856628418 C 157.6607971191406 31.63406181335449 161.3221893310547 36.07175064086914 164.5103607177734 40.79084777832031 C 167.7288208007813 45.5547981262207 170.4931030273438 50.64756011962891 172.7263793945313 55.92765808105469 C 175.0008087158203 61.30501174926758 176.7476196289063 66.93235015869141 177.9183197021484 72.6533203125 C 179.1196746826172 78.52427673339844 179.7288208007813 84.56732177734375 179.7288208007813 90.61460876464844 C 179.7288208007813 96.66189575195313 179.1196746826172 102.704963684082 177.9183197021484 108.5758972167969 C 176.7476196289063 114.2968673706055 175.0008087158203 119.924201965332 172.7263793945313 125.3015823364258 C 170.4931030273438 130.5816497802734 167.7288208007813 135.6744232177734 164.5103607177734 140.4384002685547 C 161.3221893310547 145.1574859619141 157.6607971191406 149.5951843261719 153.6277923583984 153.6281585693359 C 149.5948181152344 157.6611633300781 145.1571502685547 161.3225860595703 140.4380493164063 164.5107574462891 C 135.6741027832031 167.7292022705078 130.5813598632813 170.4934844970703 125.3012924194336 172.7267761230469 C 119.9239349365234 175.0012054443359 114.2966003417969 176.7480316162109 108.5756454467773 177.918701171875 C 102.704719543457 179.1200866699219 96.66169738769531 179.7292327880859 90.61441040039063 179.7292327880859 Z" stroke="none"/>
      <path d="M 90.61441040039063 3.000015258789063 C 84.66793823242188 3.000015258789063 78.72605895996094 3.598907470703125 72.95388793945313 4.78009033203125 C 67.32991027832031 5.930908203125 61.79801177978516 7.648101806640625 56.51186370849609 9.883956909179688 C 51.32098388671875 12.07952880859375 46.31416320800781 14.79718017578125 41.63046264648438 17.96144104003906 C 36.990478515625 21.09613037109375 32.62713623046875 24.69625854492188 28.66166687011719 28.66172790527344 C 24.69618225097656 32.62721252441406 21.09608459472656 36.99055480957031 17.96138000488281 41.63055419921875 C 14.79713439941406 46.31425476074219 12.07948303222656 51.32110595703125 9.883941650390625 56.51198577880859 C 7.648056030273438 61.79815673828125 5.930892944335938 67.33005523681641 4.780029296875 72.95403289794922 C 3.598892211914063 78.72623443603516 2.999984741210938 84.66810607910156 2.999984741210938 90.61460876464844 C 2.999984741210938 96.56111145019531 3.598892211914063 102.5029830932617 4.780029296875 108.2751846313477 C 5.930892944335938 113.8991622924805 7.648056030273438 119.4310607910156 9.883941650390625 124.7172393798828 C 12.07948303222656 129.9081115722656 14.79713439941406 134.9149627685547 17.96138000488281 139.5986633300781 C 21.09608459472656 144.2386627197266 24.69618225097656 148.6020050048828 28.66166687011719 152.5674896240234 C 32.62713623046875 156.532958984375 36.990478515625 160.1330871582031 41.63046264648438 163.2677917480469 C 46.31416320800781 166.4320373535156 51.32098388671875 169.1496887207031 56.51186370849609 171.3452606201172 C 61.79801177978516 173.5811157226563 67.32991027832031 175.2983093261719 72.95388793945313 176.4491271972656 C 78.72605895996094 177.6303100585938 84.66793823242188 178.2292022705078 90.61441040039063 178.2292022705078 C 96.56088256835938 178.2292022705078 102.5027618408203 177.6303100585938 108.2749328613281 176.4491271972656 C 113.8988876342773 175.2983093261719 119.4307861328125 173.5811157226563 124.7169647216797 171.3452606201172 C 129.9078063964844 169.1496887207031 134.9146423339844 166.4320373535156 139.5983581542969 163.2677917480469 C 144.2383422851563 160.1330871582031 148.6016540527344 156.532958984375 152.567138671875 152.5674896240234 C 156.5326080322266 148.6020050048828 160.1327056884766 144.2386627197266 163.2674102783203 139.5986633300781 C 166.4316558837891 134.9149627685547 169.1493072509766 129.9081115722656 171.3448638916016 124.7172393798828 C 173.5807342529297 119.4310607910156 175.2979125976563 113.8991622924805 176.4487609863281 108.2751846313477 C 177.6299133300781 102.5029830932617 178.2288055419922 96.56111145019531 178.2288055419922 90.61460876464844 C 178.2288055419922 84.66810607910156 177.6299133300781 78.72623443603516 176.4487609863281 72.95403289794922 C 175.2979125976563 67.33005523681641 173.5807342529297 61.79815673828125 171.3448638916016 56.51198577880859 C 169.1493072509766 51.32110595703125 166.4316558837891 46.31425476074219 163.2674102783203 41.63055419921875 C 160.1327056884766 36.99055480957031 156.5326080322266 32.62721252441406 152.567138671875 28.66172790527344 C 148.6016540527344 24.69625854492188 144.2383422851563 21.09613037109375 139.5983581542969 17.96144104003906 C 134.9146423339844 14.79718017578125 129.9078063964844 12.07952880859375 124.7169647216797 9.883956909179688 C 119.4307861328125 7.648101806640625 113.8988876342773 5.930908203125 108.2749328613281 4.78009033203125 C 102.5027618408203 3.598907470703125 96.56088256835938 3.000015258789063 90.61441040039063 3.000015258789063 M 90.61441040039063 1.52587890625e-05 C 140.6593322753906 1.52587890625e-05 181.2288055419922 40.56956481933594 181.2288055419922 90.61460876464844 C 181.2288055419922 140.65966796875 140.6593322753906 181.2292022705078 90.61441040039063 181.2292022705078 C 40.5694580078125 181.2292022705078 -1.52587890625e-05 140.65966796875 -1.52587890625e-05 90.61460876464844 C -1.52587890625e-05 40.56956481933594 40.5694580078125 1.52587890625e-05 90.61441040039063 1.52587890625e-05 Z" stroke="none" fill="#e9e9e9"/>
    </g>
    <g id="Group_74740" data-name="Group 74740" transform="translate(52.408 48.404)">
      <g id="presentation_" transform="translate(0 0)">
        <path id="Path_675" data-name="Path 675" d="M218.179,230a2.109,2.109,0,0,0-1.318-1.324,2.022,2.022,0,0,0-1.82.277l-6.125,4.38a13.254,13.254,0,0,0-18.615-1.964,14.285,14.285,0,0,0-2.758,19.1,13.282,13.282,0,0,0,18.361,3.723,14.248,14.248,0,0,0,4.448-18.76l5.66-4.049,2.612,7.636a2.1,2.1,0,0,0,1.439,1.362,2.029,2.029,0,0,0,1.9-.474l17.384-15.972.629.857a.327.327,0,0,0,.3.132.333.333,0,0,0,.264-.2l2.159-5.066a.352.352,0,0,0-.036-.351.327.327,0,0,0-.316-.133l-5.3.812a.334.334,0,0,0-.259.21.352.352,0,0,0,.043.337l1,1.354L220.764,237.56Zm-19.572,23.821a11.419,11.419,0,1,0,0-.007Z" transform="translate(-176.35 -203.339)" fill="#007bcc"/>
        <path id="Path_676" data-name="Path 676" d="M314.9,416.4a1.246,1.246,0,1,0,2.49,0,4.322,4.322,0,0,0-3.735-4.332v-.456a1.246,1.246,0,1,0-2.491,0v.456a4.323,4.323,0,0,0-3.736,4.332v.129a4.323,4.323,0,0,0,3.736,4.334v3.671a1.79,1.79,0,0,1-1.245-1.714,1.246,1.246,0,1,0-2.491,0,4.323,4.323,0,0,0,3.736,4.332v.685a1.246,1.246,0,1,0,2.491,0v-.685a4.322,4.322,0,0,0,3.735-4.332v-.139a4.323,4.323,0,0,0-3.735-4.334v-3.666a1.79,1.79,0,0,1,1.245,1.714Zm-3.736,1.847a1.789,1.789,0,0,1-1.245-1.714V416.4a1.79,1.79,0,0,1,1.245-1.714Zm3.736,4.439v.127a1.789,1.789,0,0,1-1.245,1.714v-3.559a1.79,1.79,0,0,1,1.245,1.714Z" transform="translate(-290.152 -380.692)" fill="#007bcc"/>
        <path id="Path_677" data-name="Path 677" d="M134.243,10.3a2.851,2.851,0,0,0,2.811-2.884V2.884A2.852,2.852,0,0,0,134.243,0H63.324a2.851,2.851,0,0,0-2.811,2.884V7.417A2.851,2.851,0,0,0,63.324,10.3h.593v15.68a1.246,1.246,0,1,0,2.491,0V10.3H131.16V62.912H112.1l.86-.877a2.586,2.586,0,0,0,.737-1.823h0a2.586,2.586,0,0,0-.737-1.822l-3.228-3.3a2.458,2.458,0,0,0-3.532,0L104.915,56.4a14.05,14.05,0,0,0-1.345-.571V53.982h0a2.541,2.541,0,0,0-2.505-2.571H96.5A2.541,2.541,0,0,0,94,53.982h0v1.837a14.054,14.054,0,0,0-1.345.571l-1.283-1.311a2.457,2.457,0,0,0-3.532,0l-3.226,3.3a2.619,2.619,0,0,0,0,3.645l.86.877H66.407V31.979a1.246,1.246,0,1,0-2.491,0V62.9h-.593a2.851,2.851,0,0,0-2.811,2.884V70.32A2.851,2.851,0,0,0,63.324,73.2H81.358a2.49,2.49,0,0,0,2.158,1.277h1.818a14.211,14.211,0,0,0,.55,1.354l-1.272,1.3a2.629,2.629,0,0,0,0,3.647l3.228,3.3a2.457,2.457,0,0,0,3.531,0l1.284-1.311A13.618,13.618,0,0,0,94,83.334v1.837a2.541,2.541,0,0,0,2.505,2.571h4.563a2.541,2.541,0,0,0,2.506-2.571V83.334a14.059,14.059,0,0,0,1.345-.571l1.283,1.311a2.462,2.462,0,0,0,1.4.721,1.254,1.254,0,0,0,1.41-1.093,1.281,1.281,0,0,0-1.059-1.455l-1.924-1.966a1.218,1.218,0,0,0-1.481-.209,11.634,11.634,0,0,1-2.555,1.081,1.282,1.282,0,0,0-.91,1.239v2.778a.019.019,0,0,1-.017,0H96.487V82.393a1.278,1.278,0,0,0-.91-1.237,11.619,11.619,0,0,1-2.555-1.083,1.218,1.218,0,0,0-1.481.209l-1.924,1.966.877.913-4.133-4.2,1.924-1.966a1.316,1.316,0,0,0,.208-1.542,12.062,12.062,0,0,1-1.058-2.6,1.253,1.253,0,0,0-1.2-.934h-2.73V67.254h2.734a1.253,1.253,0,0,0,1.2-.934,12.332,12.332,0,0,1,1.049-2.608,1.316,1.316,0,0,0-.207-1.542l-1.924-1.957c.018-.017,3.221-3.29,3.239-3.306l1.941,1.976a1.223,1.223,0,0,0,.9.37c.465-.01.538-.194,1.508-.639a18.016,18.016,0,0,1,1.818-.685,1.3,1.3,0,0,0,.717-1.164V54a.019.019,0,0,1,.017,0h4.578v2.778a1.29,1.29,0,0,0,.91,1.239,11.552,11.552,0,0,1,2.555,1.081,1.218,1.218,0,0,0,1.481-.209c.017-.019,1.916-1.96,1.936-1.976l3.244,3.3-1.924,1.966a1.313,1.313,0,0,0-.208,1.542,12.379,12.379,0,0,1,1.059,2.607,1.252,1.252,0,0,0,1.2.934h2.73V71.91a.015.015,0,0,1-.013,0h-2.716a1.252,1.252,0,0,0-1.2.934,12.15,12.15,0,0,1-1.054,2.6,1.316,1.316,0,0,0,.208,1.542l1.924,1.955h0a1.314,1.314,0,0,0,.128,1.813,1.219,1.219,0,0,0,1.757-.132,2.631,2.631,0,0,0-.133-3.5l-1.272-1.3q.308-.662.55-1.354h1.813A2.49,2.49,0,0,0,116.21,73.2h18.033a2.851,2.851,0,0,0,2.811-2.884V65.787a2.852,2.852,0,0,0-2.811-2.884h-.593V10.3ZM81.018,67.249v3.385H63.324A.318.318,0,0,1,63,70.32V65.787a.318.318,0,0,1,.32-.314H81.709A2.641,2.641,0,0,0,81.018,67.249Zm53.229-1.775a.318.318,0,0,1,.32.314V70.32a.318.318,0,0,1-.32.314h-17.7V67.249a2.59,2.59,0,0,0-.7-1.775ZM63,7.417V2.884a.318.318,0,0,1,.32-.314h70.92a.318.318,0,0,1,.321.314V7.417a.318.318,0,0,1-.321.314C58.427,7.73,63,7.883,63,7.417Z" transform="translate(-60.513 0)" fill="#007bcc"/>
        <path id="Path_678" data-name="Path 678" d="M519.638,868.226a6.883,6.883,0,1,0,6.723,6.877A6.779,6.779,0,0,0,519.638,868.226Zm0,11.189a4.311,4.311,0,1,1,4.232-4.313A4.248,4.248,0,0,1,519.638,879.416Z" transform="translate(-481.368 -805.527)" fill="#007bcc"/>
      </g>
    </g>
  </g>
</svg>
