<svg xmlns="http://www.w3.org/2000/svg" width="181.229" height="181.229" viewBox="0 0 181.229 181.229">
  <g id="Group_74849" data-name="Group 74849" transform="translate(0)">
    <g id="Path_744" data-name="Path 744" transform="translate(0 0)" fill="#fff">
      <path d="M 90.61441040039063 179.7292327880859 C 84.56712341308594 179.7292327880859 78.52410125732422 179.1200866699219 72.65317535400391 177.918701171875 C 66.93219757080078 176.7480316162109 61.30488586425781 175.0012054443359 55.92752838134766 172.7267761230469 C 50.64745712280273 170.4934844970703 45.55469512939453 167.7292022705078 40.79074478149414 164.5107574462891 C 36.07167053222656 161.3225860595703 31.63400650024414 157.6611633300781 27.60100555419922 153.6281585693359 C 23.56802940368652 149.5951843261719 19.90660095214844 145.1574859619141 16.71845817565918 140.4384002685547 C 13.49998188018799 135.6744232177734 10.73571968078613 130.5816497802734 8.502433776855469 125.3015823364258 C 6.228005409240723 119.924201965332 4.48119592666626 114.2968673706055 3.310505628585815 108.5758972167969 C 2.109148502349854 102.704963684082 1.500005602836609 96.66189575195313 1.500005602836609 90.61460876464844 C 1.500005602836609 84.56732177734375 2.109148502349854 78.52427673339844 3.310505628585815 72.6533203125 C 4.48119592666626 66.93235015869141 6.228005409240723 61.30501174926758 8.502433776855469 55.92765808105469 C 10.73571968078613 50.64756011962891 13.49998188018799 45.5547981262207 16.71845817565918 40.79084777832031 C 19.90660095214844 36.07175064086914 23.56802940368652 31.63406181335449 27.60100555419922 27.6010856628418 C 31.63400650024414 23.56808471679688 36.07167053222656 19.90665626525879 40.79074478149414 16.71849060058594 C 45.55469512939453 13.50003719329834 50.64745712280273 10.73575115203857 55.92752838134766 8.502466201782227 C 61.30488586425781 6.228037357330322 66.93219757080078 4.481204032897949 72.65317535400391 3.310537338256836 C 78.52410125732422 2.109156370162964 84.56712341308594 1.500013470649719 90.61441040039063 1.500013470649719 C 96.66169738769531 1.500013470649719 102.704719543457 2.109156370162964 108.5756454467773 3.310537338256836 C 114.2966003417969 4.481204032897949 119.9239349365234 6.228037357330322 125.3012924194336 8.502466201782227 C 130.5813598632813 10.73575115203857 135.6741027832031 13.50003719329834 140.4380493164063 16.71849060058594 C 145.1571502685547 19.90665626525879 149.5948181152344 23.56808471679688 153.6277923583984 27.6010856628418 C 157.6607971191406 31.63406181335449 161.3221893310547 36.07175064086914 164.5103607177734 40.79084777832031 C 167.7288208007813 45.5547981262207 170.4931030273438 50.64756011962891 172.7263793945313 55.92765808105469 C 175.0008087158203 61.30501174926758 176.7476196289063 66.93235015869141 177.9183197021484 72.6533203125 C 179.1196746826172 78.52427673339844 179.7288208007813 84.56732177734375 179.7288208007813 90.61460876464844 C 179.7288208007813 96.66189575195313 179.1196746826172 102.704963684082 177.9183197021484 108.5758972167969 C 176.7476196289063 114.2968673706055 175.0008087158203 119.924201965332 172.7263793945313 125.3015823364258 C 170.4931030273438 130.5816497802734 167.7288208007813 135.6744232177734 164.5103607177734 140.4384002685547 C 161.3221893310547 145.1574859619141 157.6607971191406 149.5951843261719 153.6277923583984 153.6281585693359 C 149.5948181152344 157.6611633300781 145.1571502685547 161.3225860595703 140.4380493164063 164.5107574462891 C 135.6741027832031 167.7292022705078 130.5813598632813 170.4934844970703 125.3012924194336 172.7267761230469 C 119.9239349365234 175.0012054443359 114.2966003417969 176.7480316162109 108.5756454467773 177.918701171875 C 102.704719543457 179.1200866699219 96.66169738769531 179.7292327880859 90.61441040039063 179.7292327880859 Z" stroke="none"/>
      <path d="M 90.61441040039063 3.000015258789063 C 84.66793823242188 3.000015258789063 78.72605895996094 3.598907470703125 72.95388793945313 4.78009033203125 C 67.32991027832031 5.930908203125 61.79801177978516 7.648101806640625 56.51186370849609 9.883956909179688 C 51.32098388671875 12.07952880859375 46.31416320800781 14.79718017578125 41.63046264648438 17.96144104003906 C 36.990478515625 21.09613037109375 32.62713623046875 24.69625854492188 28.66166687011719 28.66172790527344 C 24.69618225097656 32.62721252441406 21.09608459472656 36.99055480957031 17.96138000488281 41.63055419921875 C 14.79713439941406 46.31425476074219 12.07948303222656 51.32110595703125 9.883941650390625 56.51198577880859 C 7.648056030273438 61.79815673828125 5.930892944335938 67.33005523681641 4.780029296875 72.95403289794922 C 3.598892211914063 78.72623443603516 2.999984741210938 84.66810607910156 2.999984741210938 90.61460876464844 C 2.999984741210938 96.56111145019531 3.598892211914063 102.5029830932617 4.780029296875 108.2751846313477 C 5.930892944335938 113.8991622924805 7.648056030273438 119.4310607910156 9.883941650390625 124.7172393798828 C 12.07948303222656 129.9081115722656 14.79713439941406 134.9149627685547 17.96138000488281 139.5986633300781 C 21.09608459472656 144.2386627197266 24.69618225097656 148.6020050048828 28.66166687011719 152.5674896240234 C 32.62713623046875 156.532958984375 36.990478515625 160.1330871582031 41.63046264648438 163.2677917480469 C 46.31416320800781 166.4320373535156 51.32098388671875 169.1496887207031 56.51186370849609 171.3452606201172 C 61.79801177978516 173.5811157226563 67.32991027832031 175.2983093261719 72.95388793945313 176.4491271972656 C 78.72605895996094 177.6303100585938 84.66793823242188 178.2292022705078 90.61441040039063 178.2292022705078 C 96.56088256835938 178.2292022705078 102.5027618408203 177.6303100585938 108.2749328613281 176.4491271972656 C 113.8988876342773 175.2983093261719 119.4307861328125 173.5811157226563 124.7169647216797 171.3452606201172 C 129.9078063964844 169.1496887207031 134.9146423339844 166.4320373535156 139.5983581542969 163.2677917480469 C 144.2383422851563 160.1330871582031 148.6016540527344 156.532958984375 152.567138671875 152.5674896240234 C 156.5326080322266 148.6020050048828 160.1327056884766 144.2386627197266 163.2674102783203 139.5986633300781 C 166.4316558837891 134.9149627685547 169.1493072509766 129.9081115722656 171.3448638916016 124.7172393798828 C 173.5807342529297 119.4310607910156 175.2979125976563 113.8991622924805 176.4487609863281 108.2751846313477 C 177.6299133300781 102.5029830932617 178.2288055419922 96.56111145019531 178.2288055419922 90.61460876464844 C 178.2288055419922 84.66810607910156 177.6299133300781 78.72623443603516 176.4487609863281 72.95403289794922 C 175.2979125976563 67.33005523681641 173.5807342529297 61.79815673828125 171.3448638916016 56.51198577880859 C 169.1493072509766 51.32110595703125 166.4316558837891 46.31425476074219 163.2674102783203 41.63055419921875 C 160.1327056884766 36.99055480957031 156.5326080322266 32.62721252441406 152.567138671875 28.66172790527344 C 148.6016540527344 24.69625854492188 144.2383422851563 21.09613037109375 139.5983581542969 17.96144104003906 C 134.9146423339844 14.79718017578125 129.9078063964844 12.07952880859375 124.7169647216797 9.883956909179688 C 119.4307861328125 7.648101806640625 113.8988876342773 5.930908203125 108.2749328613281 4.78009033203125 C 102.5027618408203 3.598907470703125 96.56088256835938 3.000015258789063 90.61441040039063 3.000015258789063 M 90.61441040039063 1.52587890625e-05 C 140.6593322753906 1.52587890625e-05 181.2288055419922 40.56956481933594 181.2288055419922 90.61460876464844 C 181.2288055419922 140.65966796875 140.6593322753906 181.2292022705078 90.61441040039063 181.2292022705078 C 40.5694580078125 181.2292022705078 -1.52587890625e-05 140.65966796875 -1.52587890625e-05 90.61460876464844 C -1.52587890625e-05 40.56956481933594 40.5694580078125 1.52587890625e-05 90.61441040039063 1.52587890625e-05 Z" stroke="none" fill="#e9e9e9"/>
    </g>
    <g id="Group_74719" data-name="Group 74719" transform="translate(46.981 50.02)">
      <g id="Group_74702" data-name="Group 74702" transform="translate(39.895 38.124)">
        <g id="Group_74701" data-name="Group 74701">
          <path id="Path_720" data-name="Path 720" d="M254.295,240.884a1.586,1.586,0,1,0,0,2.242A1.586,1.586,0,0,0,254.295,240.884Z" transform="translate(-251.587 -240.419)" fill="#007bcc"/>
        </g>
      </g>
      <g id="Group_74704" data-name="Group 74704" transform="translate(49.253 16.082)">
        <g id="Group_74703" data-name="Group 74703">
          <path id="Path_721" data-name="Path 721" d="M324.134,103.739a7.929,7.929,0,1,0,0,11.213A7.925,7.925,0,0,0,324.134,103.739Zm-2.243,8.97a4.757,4.757,0,1,1,0-6.728A4.764,4.764,0,0,1,321.892,112.71Z" transform="translate(-310.603 -101.415)" fill="#007bcc"/>
        </g>
      </g>
      <g id="Group_74706" data-name="Group 74706" transform="translate(15.226 0)">
        <g id="Group_74705" data-name="Group 74705" transform="translate(0 0)">
          <path id="Path_722" data-name="Path 722" d="M161.517.464A1.58,1.58,0,0,0,160.339,0,70.444,70.444,0,0,0,141.3,3.944,53.092,53.092,0,0,0,121.15,16.162c-1.173,1.173-2.315,2.417-3.407,3.71-5.177-3.047-9.326-2.092-11.948-.688-6.039,3.232-9.776,12.007-9.776,18.283a1.586,1.586,0,0,0,2.707,1.121,10.1,10.1,0,0,1,8.4-2.817l.555.555a55.776,55.776,0,0,0-2.619,7.7,4.489,4.489,0,0,0,.192,2.754,15.017,15.017,0,0,0-4.282,3.019c-4.082,4.082-4.911,14.03-4.944,14.451a1.586,1.586,0,0,0,1.58,1.711q.062,0,.125,0c.422-.033,10.37-.862,14.452-4.944a15.018,15.018,0,0,0,3.019-4.281,4.478,4.478,0,0,0,2.756.191,55.781,55.781,0,0,0,7.7-2.619l.555.555a10.1,10.1,0,0,1-2.817,8.4,1.586,1.586,0,0,0,1.121,2.707c6.276,0,15.051-3.738,18.283-9.776,1.4-2.622,2.359-6.771-.688-11.948,1.292-1.092,2.536-2.234,3.71-3.407a53.1,53.1,0,0,0,12.218-20.145A70.443,70.443,0,0,0,161.98,1.643,1.586,1.586,0,0,0,161.517.464ZM99.563,34.056c.985-4.767,3.846-10,7.728-12.076,2.594-1.388,5.43-1.252,8.444.4a64.114,64.114,0,0,0-6.662,10.86,1.672,1.672,0,0,0-.839-.493A13.553,13.553,0,0,0,99.563,34.056Zm10.375,24.717c-2.18,2.18-7.3,3.33-10.528,3.8.47-3.233,1.62-8.348,3.8-10.528a11.428,11.428,0,0,1,4.06-2.668l5.336,5.336A11.426,11.426,0,0,1,109.938,58.772Zm7.229-4.92a1.488,1.488,0,0,1-1.386-.45L112.676,50.3l-4.1-4.1a1.489,1.489,0,0,1-.451-1.386,51.5,51.5,0,0,1,1.98-6.056l13.113,13.113A51.457,51.457,0,0,1,117.167,53.852ZM140,54.691c-2.078,3.882-7.309,6.743-12.076,7.728a13.5,13.5,0,0,0,1.3-8.709,1.656,1.656,0,0,0-.482-.8,64.141,64.141,0,0,0,10.86-6.662C141.255,49.261,141.39,52.1,140,54.691Zm3.575-16.1a57.556,57.556,0,0,1-4.573,4.1,60.924,60.924,0,0,1-12.641,7.836L111.454,35.619a60.914,60.914,0,0,1,7.836-12.641,57.544,57.544,0,0,1,4.1-4.574A49.446,49.446,0,0,1,141.419,7.276l13.287,13.287A49.442,49.442,0,0,1,143.578,38.589Zm12.269-21.37L144.763,6.135A71.293,71.293,0,0,1,158.677,3.3,71.3,71.3,0,0,1,155.847,17.219Z" transform="translate(-96.018 0)" fill="#007bcc"/>
        </g>
      </g>
      <g id="Group_74708" data-name="Group 74708" transform="translate(30.925 65.035)">
        <g id="Group_74707" data-name="Group 74707">
          <path id="Path_723" data-name="Path 723" d="M202.212,410.585a1.586,1.586,0,0,0-2.243,0l-4.484,4.486a1.586,1.586,0,0,0,2.243,2.242l4.484-4.486A1.586,1.586,0,0,0,202.212,410.585Z" transform="translate(-195.021 -410.121)" fill="#007bcc"/>
        </g>
      </g>
      <g id="Group_74710" data-name="Group 74710" transform="translate(8.498 42.609)">
        <g id="Group_74709" data-name="Group 74709">
          <path id="Path_724" data-name="Path 724" d="M60.785,269.166a1.586,1.586,0,0,0-2.243,0l-4.486,4.484a1.586,1.586,0,1,0,2.242,2.243l4.486-4.484A1.586,1.586,0,0,0,60.785,269.166Z" transform="translate(-53.592 -268.701)" fill="#007bcc"/>
        </g>
      </g>
      <g id="Group_74712" data-name="Group 74712" transform="translate(13.455 67.278)">
        <g id="Group_74711" data-name="Group 74711">
          <path id="Path_725" data-name="Path 725" d="M98.3,424.736a1.586,1.586,0,0,0-2.243,0l-10.742,10.74a1.586,1.586,0,0,0,2.242,2.243L98.3,426.978A1.586,1.586,0,0,0,98.3,424.736Z" transform="translate(-84.851 -424.271)" fill="#007bcc"/>
        </g>
      </g>
      <g id="Group_74714" data-name="Group 74714" transform="translate(0.769 67.278)">
        <g id="Group_74713" data-name="Group 74713">
          <path id="Path_726" data-name="Path 726" d="M18.3,424.736a1.586,1.586,0,0,0-2.243,0L5.316,435.476a1.586,1.586,0,0,0,2.242,2.243L18.3,426.978A1.586,1.586,0,0,0,18.3,424.736Z" transform="translate(-4.851 -424.271)" fill="#007bcc"/>
        </g>
      </g>
      <g id="Group_74716" data-name="Group 74716" transform="translate(0 53.822)">
        <g id="Group_74715" data-name="Group 74715">
          <path id="Path_727" data-name="Path 727" d="M13.449,339.874a1.586,1.586,0,0,0-2.243,0L.466,350.616a1.586,1.586,0,0,0,2.243,2.242l10.74-10.742A1.586,1.586,0,0,0,13.449,339.874Z" transform="translate(-0.001 -339.41)" fill="#007bcc"/>
        </g>
      </g>
      <g id="Group_74718" data-name="Group 74718" transform="translate(44.38 31.396)">
        <g id="Group_74717" data-name="Group 74717">
          <path id="Path_728" data-name="Path 728" d="M284.821,198.455a1.586,1.586,0,0,0-2.243,0l-2.242,2.242a1.586,1.586,0,0,0,2.243,2.243l2.242-2.242A1.586,1.586,0,0,0,284.821,198.455Z" transform="translate(-279.871 -197.99)" fill="#007bcc"/>
        </g>
      </g>
    </g>
  </g>
</svg>
