<svg xmlns="http://www.w3.org/2000/svg" width="283" height="274" viewBox="0 0 283 274">
  <g id="Group_74726" data-name="Group 74726" transform="translate(-1227 -3405)">
    <g id="Group_74719" data-name="Group 74719" transform="translate(1295.997 3470)">
      <g id="Group_74702" data-name="Group 74702" transform="translate(70.76 67.618)">
        <g id="Group_74701" data-name="Group 74701">
          <path id="Path_720" data-name="Path 720" d="M256.389,241.243a2.813,2.813,0,1,0,0,3.977A2.813,2.813,0,0,0,256.389,241.243Z" transform="translate(-251.587 -240.418)" fill="#007bcc"/>
        </g>
      </g>
      <g id="Group_74704" data-name="Group 74704" transform="translate(87.358 28.523)">
        <g id="Group_74703" data-name="Group 74703">
          <path id="Path_721" data-name="Path 721" d="M334.6,105.537a14.063,14.063,0,1,0,0,19.888A14.057,14.057,0,0,0,334.6,105.537Zm-3.977,15.91a8.438,8.438,0,1,1,0-11.933A8.449,8.449,0,0,1,330.625,121.447Z" transform="translate(-310.603 -101.415)" fill="#007bcc"/>
        </g>
      </g>
      <g id="Group_74706" data-name="Group 74706" transform="translate(27.006 0)">
        <g id="Group_74705" data-name="Group 74705" transform="translate(0 0)">
          <path id="Path_722" data-name="Path 722" d="M212.189.824A2.8,2.8,0,0,0,210.1,0a124.942,124.942,0,0,0-33.776,6.993c-14.422,5.092-26.444,12.383-35.731,21.67-2.081,2.081-4.106,4.288-6.043,6.58-9.182-5.405-16.54-3.71-21.192-1.221-10.71,5.732-17.34,21.3-17.34,32.427a2.813,2.813,0,0,0,4.8,1.989,17.9,17.9,0,0,1,14.891-5l.985.985a98.924,98.924,0,0,0-4.645,13.66,7.961,7.961,0,0,0,.341,4.885,26.634,26.634,0,0,0-7.6,5.355c-7.24,7.24-8.71,24.884-8.769,25.631a2.812,2.812,0,0,0,2.8,3.034q.111,0,.222-.009c.748-.059,18.392-1.529,25.632-8.769a26.635,26.635,0,0,0,5.354-7.593,7.942,7.942,0,0,0,4.888.338,98.935,98.935,0,0,0,13.658-4.645l.985.985a17.905,17.905,0,0,1-5,14.891,2.812,2.812,0,0,0,1.989,4.8c11.132,0,26.695-6.629,32.427-17.34,2.489-4.651,4.184-12.009-1.221-21.192,2.291-1.937,4.5-3.962,6.58-6.043,9.287-9.287,16.577-21.308,21.67-35.73a124.94,124.94,0,0,0,6.993-33.776A2.813,2.813,0,0,0,212.189.824ZM102.306,60.4c1.747-8.455,6.822-17.733,13.707-21.418,4.6-2.462,9.63-2.221,14.977.706a113.717,113.717,0,0,0-11.817,19.262,2.965,2.965,0,0,0-1.489-.874A24.039,24.039,0,0,0,102.306,60.4Zm18.4,43.838c-3.867,3.867-12.939,5.907-18.673,6.74.833-5.734,2.873-14.806,6.74-18.672a20.268,20.268,0,0,1,7.2-4.732l9.465,9.465A20.265,20.265,0,0,1,120.707,104.24Zm12.822-8.726a2.639,2.639,0,0,1-2.458-.8l-5.509-5.508L118.3,81.944a2.641,2.641,0,0,1-.8-2.458,91.325,91.325,0,0,1,3.512-10.742L144.269,92A91.263,91.263,0,0,1,133.529,95.513ZM174.03,97c-3.685,6.885-12.963,11.96-21.418,13.706,2.7-5.073,3.29-11.531,2.305-15.447a2.937,2.937,0,0,0-.855-1.421,113.761,113.761,0,0,0,19.262-11.817C176.251,87.371,176.492,92.4,174.03,97Zm6.341-28.558a102.085,102.085,0,0,1-8.111,7.276,108.056,108.056,0,0,1-22.421,13.9L123.4,63.175a108.038,108.038,0,0,1,13.9-22.42,102.058,102.058,0,0,1,7.277-8.112c8.332-8.332,19.085-14.964,31.97-19.737l23.566,23.566C195.335,49.356,188.7,60.109,180.371,68.442Zm21.761-37.9L182.473,10.882a126.446,126.446,0,0,1,24.679-5.02A126.466,126.466,0,0,1,202.132,30.54Z" transform="translate(-96.018 0)" fill="#007bcc"/>
        </g>
      </g>
      <g id="Group_74708" data-name="Group 74708" transform="translate(54.85 115.346)">
        <g id="Group_74707" data-name="Group 74707">
          <path id="Path_723" data-name="Path 723" d="M207.775,410.945a2.813,2.813,0,0,0-3.978,0l-7.954,7.957a2.813,2.813,0,0,0,3.978,3.977l7.954-7.957A2.813,2.813,0,0,0,207.775,410.945Z" transform="translate(-195.021 -410.121)" fill="#007bcc"/>
        </g>
      </g>
      <g id="Group_74710" data-name="Group 74710" transform="translate(15.074 75.572)">
        <g id="Group_74709" data-name="Group 74709">
          <path id="Path_724" data-name="Path 724" d="M66.35,269.525a2.813,2.813,0,0,0-3.977,0l-7.957,7.954a2.812,2.812,0,1,0,3.977,3.978l7.957-7.954A2.813,2.813,0,0,0,66.35,269.525Z" transform="translate(-53.592 -268.701)" fill="#007bcc"/>
        </g>
      </g>
      <g id="Group_74712" data-name="Group 74712" transform="translate(23.865 119.326)">
        <g id="Group_74711" data-name="Group 74711">
          <path id="Path_725" data-name="Path 725" d="M108.7,425.095a2.813,2.813,0,0,0-3.977,0L85.675,444.144a2.812,2.812,0,1,0,3.977,3.978L108.7,429.072A2.812,2.812,0,0,0,108.7,425.095Z" transform="translate(-84.851 -424.271)" fill="#007bcc"/>
        </g>
      </g>
      <g id="Group_74714" data-name="Group 74714" transform="translate(1.365 119.326)">
        <g id="Group_74713" data-name="Group 74713">
          <path id="Path_726" data-name="Path 726" d="M28.7,425.095a2.813,2.813,0,0,0-3.977,0L5.675,444.144a2.812,2.812,0,1,0,3.977,3.978L28.7,429.072A2.812,2.812,0,0,0,28.7,425.095Z" transform="translate(-4.851 -424.271)" fill="#007bcc"/>
        </g>
      </g>
      <g id="Group_74716" data-name="Group 74716" transform="translate(0.001 95.459)">
        <g id="Group_74715" data-name="Group 74715">
          <path id="Path_727" data-name="Path 727" d="M23.852,340.234a2.813,2.813,0,0,0-3.977,0L.825,359.286A2.813,2.813,0,0,0,4.8,363.263l19.049-19.052A2.813,2.813,0,0,0,23.852,340.234Z" transform="translate(-0.001 -339.41)" fill="#007bcc"/>
        </g>
      </g>
      <g id="Group_74718" data-name="Group 74718" transform="translate(78.715 55.685)">
        <g id="Group_74717" data-name="Group 74717">
          <path id="Path_728" data-name="Path 728" d="M288.65,198.814a2.813,2.813,0,0,0-3.978,0l-3.977,3.977a2.813,2.813,0,1,0,3.978,3.978l3.977-3.977A2.813,2.813,0,0,0,288.65,198.814Z" transform="translate(-279.871 -197.99)" fill="#007bcc"/>
        </g>
      </g>
    </g>
    <ellipse id="Ellipse_80" data-name="Ellipse 80" cx="141.5" cy="137" rx="141.5" ry="137" transform="translate(1227 3405)" fill="#007bcc" opacity="0.1"/>
  </g>
</svg>
