<svg xmlns="http://www.w3.org/2000/svg" width="181.229" height="181.229" viewBox="0 0 181.229 181.229">
  <g id="Group_74851" data-name="Group 74851" transform="translate(0)">
    <g id="Path_744" data-name="Path 744" transform="translate(0 0)" fill="#fff">
      <path d="M 90.61441040039063 179.7292327880859 C 84.56712341308594 179.7292327880859 78.52410125732422 179.1200866699219 72.65317535400391 177.918701171875 C 66.93219757080078 176.7480316162109 61.30488586425781 175.0012054443359 55.92752838134766 172.7267761230469 C 50.64745712280273 170.4934844970703 45.55469512939453 167.7292022705078 40.79074478149414 164.5107574462891 C 36.07167053222656 161.3225860595703 31.63400650024414 157.6611633300781 27.60100555419922 153.6281585693359 C 23.56802940368652 149.5951843261719 19.90660095214844 145.1574859619141 16.71845817565918 140.4384002685547 C 13.49998188018799 135.6744232177734 10.73571968078613 130.5816497802734 8.502433776855469 125.3015823364258 C 6.228005409240723 119.924201965332 4.48119592666626 114.2968673706055 3.310505628585815 108.5758972167969 C 2.109148502349854 102.704963684082 1.500005602836609 96.66189575195313 1.500005602836609 90.61460876464844 C 1.500005602836609 84.56732177734375 2.109148502349854 78.52427673339844 3.310505628585815 72.6533203125 C 4.48119592666626 66.93235015869141 6.228005409240723 61.30501174926758 8.502433776855469 55.92765808105469 C 10.73571968078613 50.64756011962891 13.49998188018799 45.5547981262207 16.71845817565918 40.79084777832031 C 19.90660095214844 36.07175064086914 23.56802940368652 31.63406181335449 27.60100555419922 27.6010856628418 C 31.63400650024414 23.56808471679688 36.07167053222656 19.90665626525879 40.79074478149414 16.71849060058594 C 45.55469512939453 13.50003719329834 50.64745712280273 10.73575115203857 55.92752838134766 8.502466201782227 C 61.30488586425781 6.228037357330322 66.93219757080078 4.481204032897949 72.65317535400391 3.310537338256836 C 78.52410125732422 2.109156370162964 84.56712341308594 1.500013470649719 90.61441040039063 1.500013470649719 C 96.66169738769531 1.500013470649719 102.704719543457 2.109156370162964 108.5756454467773 3.310537338256836 C 114.2966003417969 4.481204032897949 119.9239349365234 6.228037357330322 125.3012924194336 8.502466201782227 C 130.5813598632813 10.73575115203857 135.6741027832031 13.50003719329834 140.4380493164063 16.71849060058594 C 145.1571502685547 19.90665626525879 149.5948181152344 23.56808471679688 153.6277923583984 27.6010856628418 C 157.6607971191406 31.63406181335449 161.3221893310547 36.07175064086914 164.5103607177734 40.79084777832031 C 167.7288208007813 45.5547981262207 170.4931030273438 50.64756011962891 172.7263793945313 55.92765808105469 C 175.0008087158203 61.30501174926758 176.7476196289063 66.93235015869141 177.9183197021484 72.6533203125 C 179.1196746826172 78.52427673339844 179.7288208007813 84.56732177734375 179.7288208007813 90.61460876464844 C 179.7288208007813 96.66189575195313 179.1196746826172 102.704963684082 177.9183197021484 108.5758972167969 C 176.7476196289063 114.2968673706055 175.0008087158203 119.924201965332 172.7263793945313 125.3015823364258 C 170.4931030273438 130.5816497802734 167.7288208007813 135.6744232177734 164.5103607177734 140.4384002685547 C 161.3221893310547 145.1574859619141 157.6607971191406 149.5951843261719 153.6277923583984 153.6281585693359 C 149.5948181152344 157.6611633300781 145.1571502685547 161.3225860595703 140.4380493164063 164.5107574462891 C 135.6741027832031 167.7292022705078 130.5813598632813 170.4934844970703 125.3012924194336 172.7267761230469 C 119.9239349365234 175.0012054443359 114.2966003417969 176.7480316162109 108.5756454467773 177.918701171875 C 102.704719543457 179.1200866699219 96.66169738769531 179.7292327880859 90.61441040039063 179.7292327880859 Z" stroke="none"/>
      <path d="M 90.61441040039063 3.000015258789063 C 84.66793823242188 3.000015258789063 78.72605895996094 3.598907470703125 72.95388793945313 4.78009033203125 C 67.32991027832031 5.930908203125 61.79801177978516 7.648101806640625 56.51186370849609 9.883956909179688 C 51.32098388671875 12.07952880859375 46.31416320800781 14.79718017578125 41.63046264648438 17.96144104003906 C 36.990478515625 21.09613037109375 32.62713623046875 24.69625854492188 28.66166687011719 28.66172790527344 C 24.69618225097656 32.62721252441406 21.09608459472656 36.99055480957031 17.96138000488281 41.63055419921875 C 14.79713439941406 46.31425476074219 12.07948303222656 51.32110595703125 9.883941650390625 56.51198577880859 C 7.648056030273438 61.79815673828125 5.930892944335938 67.33005523681641 4.780029296875 72.95403289794922 C 3.598892211914063 78.72623443603516 2.999984741210938 84.66810607910156 2.999984741210938 90.61460876464844 C 2.999984741210938 96.56111145019531 3.598892211914063 102.5029830932617 4.780029296875 108.2751846313477 C 5.930892944335938 113.8991622924805 7.648056030273438 119.4310607910156 9.883941650390625 124.7172393798828 C 12.07948303222656 129.9081115722656 14.79713439941406 134.9149627685547 17.96138000488281 139.5986633300781 C 21.09608459472656 144.2386627197266 24.69618225097656 148.6020050048828 28.66166687011719 152.5674896240234 C 32.62713623046875 156.532958984375 36.990478515625 160.1330871582031 41.63046264648438 163.2677917480469 C 46.31416320800781 166.4320373535156 51.32098388671875 169.1496887207031 56.51186370849609 171.3452606201172 C 61.79801177978516 173.5811157226563 67.32991027832031 175.2983093261719 72.95388793945313 176.4491271972656 C 78.72605895996094 177.6303100585938 84.66793823242188 178.2292022705078 90.61441040039063 178.2292022705078 C 96.56088256835938 178.2292022705078 102.5027618408203 177.6303100585938 108.2749328613281 176.4491271972656 C 113.8988876342773 175.2983093261719 119.4307861328125 173.5811157226563 124.7169647216797 171.3452606201172 C 129.9078063964844 169.1496887207031 134.9146423339844 166.4320373535156 139.5983581542969 163.2677917480469 C 144.2383422851563 160.1330871582031 148.6016540527344 156.532958984375 152.567138671875 152.5674896240234 C 156.5326080322266 148.6020050048828 160.1327056884766 144.2386627197266 163.2674102783203 139.5986633300781 C 166.4316558837891 134.9149627685547 169.1493072509766 129.9081115722656 171.3448638916016 124.7172393798828 C 173.5807342529297 119.4310607910156 175.2979125976563 113.8991622924805 176.4487609863281 108.2751846313477 C 177.6299133300781 102.5029830932617 178.2288055419922 96.56111145019531 178.2288055419922 90.61460876464844 C 178.2288055419922 84.66810607910156 177.6299133300781 78.72623443603516 176.4487609863281 72.95403289794922 C 175.2979125976563 67.33005523681641 173.5807342529297 61.79815673828125 171.3448638916016 56.51198577880859 C 169.1493072509766 51.32110595703125 166.4316558837891 46.31425476074219 163.2674102783203 41.63055419921875 C 160.1327056884766 36.99055480957031 156.5326080322266 32.62721252441406 152.567138671875 28.66172790527344 C 148.6016540527344 24.69625854492188 144.2383422851563 21.09613037109375 139.5983581542969 17.96144104003906 C 134.9146423339844 14.79718017578125 129.9078063964844 12.07952880859375 124.7169647216797 9.883956909179688 C 119.4307861328125 7.648101806640625 113.8988876342773 5.930908203125 108.2749328613281 4.78009033203125 C 102.5027618408203 3.598907470703125 96.56088256835938 3.000015258789063 90.61441040039063 3.000015258789063 M 90.61441040039063 1.52587890625e-05 C 140.6593322753906 1.52587890625e-05 181.2288055419922 40.56956481933594 181.2288055419922 90.61460876464844 C 181.2288055419922 140.65966796875 140.6593322753906 181.2292022705078 90.61441040039063 181.2292022705078 C 40.5694580078125 181.2292022705078 -1.52587890625e-05 140.65966796875 -1.52587890625e-05 90.61460876464844 C -1.52587890625e-05 40.56956481933594 40.5694580078125 1.52587890625e-05 90.61441040039063 1.52587890625e-05 Z" stroke="none" fill="#e9e9e9"/>
    </g>
    <g id="Outline" transform="translate(49.523 50.544)">
      <path id="Path_710" data-name="Path 710" d="M26.028,40.949l4.212-2L33.2,40.175l1.563,4.394a1.261,1.261,0,0,0,1.188.839h5.5a1.261,1.261,0,0,0,1.188-.839L44.2,40.175l2.965-1.228,4.212,2a1.262,1.262,0,0,0,1.433-.247L56.7,36.815a1.261,1.261,0,0,0,.247-1.433l-2-4.212L56.174,28.2l4.394-1.563a1.261,1.261,0,0,0,.839-1.189v-5.5a1.261,1.261,0,0,0-.839-1.188L56.174,17.2l-1.228-2.965,2-4.212A1.261,1.261,0,0,0,56.7,8.593L52.815,4.706a1.261,1.261,0,0,0-1.433-.247l-4.212,2L44.2,5.233,42.641.839A1.261,1.261,0,0,0,41.452,0h-5.5a1.261,1.261,0,0,0-1.188.839L33.2,5.233,30.239,6.461l-4.212-2a1.261,1.261,0,0,0-1.435.247L20.706,8.593a1.261,1.261,0,0,0-.247,1.435l2,4.212L21.233,17.2l-4.394,1.562A1.261,1.261,0,0,0,16,19.955v5.5a1.261,1.261,0,0,0,.839,1.188L21.233,28.2l1.228,2.965-2,4.212a1.261,1.261,0,0,0,.247,1.434L24.593,40.7a1.262,1.262,0,0,0,1.435.247ZM25.006,30.721l-1.657-4a1.26,1.26,0,0,0-.743-.705l-4.084-1.453V20.845l4.084-1.453a1.26,1.26,0,0,0,.743-.706l1.658-4a1.261,1.261,0,0,0-.026-1.025L23.12,9.747,25.748,7.12l3.915,1.86a1.26,1.26,0,0,0,1.025.026l4-1.657a1.261,1.261,0,0,0,.7-.742l1.453-4.084h3.717l1.453,4.084a1.26,1.26,0,0,0,.706.743l4,1.658a1.26,1.26,0,0,0,1.025-.026l3.915-1.86,2.628,2.628-1.86,3.915a1.261,1.261,0,0,0-.026,1.025l1.657,4a1.26,1.26,0,0,0,.742.7l4.084,1.452v3.717L54.8,26.015a1.26,1.26,0,0,0-.743.706l-1.658,4a1.261,1.261,0,0,0,.026,1.025l1.86,3.915-2.628,2.628-3.915-1.86A1.26,1.26,0,0,0,46.72,36.4l-4,1.657a1.26,1.26,0,0,0-.7.742l-1.453,4.084H36.845L35.393,38.8a1.26,1.26,0,0,0-.706-.743l-4-1.658a1.26,1.26,0,0,0-1.025.026l-3.915,1.86L23.12,35.66l1.86-3.915a1.261,1.261,0,0,0,.026-1.024Z" transform="translate(-16)" fill="#007bcc"/>
      <path id="Path_711" data-name="Path 711" d="M99.352,94.7A11.352,11.352,0,1,0,88,83.352,11.352,11.352,0,0,0,99.352,94.7Zm0-20.181a8.829,8.829,0,1,1-8.829,8.829A8.829,8.829,0,0,1,99.352,74.523Z" transform="translate(-76.648 -60.648)" fill="#007bcc"/>
      <path id="Path_712" data-name="Path 712" d="M111.477,290.5l-1.657,4a1.261,1.261,0,0,0,.026,1.025l1.86,3.915-2.628,2.628-3.915-1.861a1.261,1.261,0,0,0-1.025-.026l-4,1.656a1.261,1.261,0,0,0-.706.743l-1.453,4.084H94.265l-1.452-4.084a1.26,1.26,0,0,0-.706-.742l-4-1.657a1.259,1.259,0,0,0-1.025.026l-3.915,1.861-2.628-2.628,1.86-3.915a1.261,1.261,0,0,0,.026-1.025l-1.657-4a1.261,1.261,0,0,0-.742-.7l-4.084-1.452v-3.717l4.084-1.452a1.261,1.261,0,0,0,.743-.706l1.657-4a1.261,1.261,0,0,0-.026-1.025l-2.243-4.719-2.278,1.084,2,4.212-1.228,2.965-4.394,1.563a1.261,1.261,0,0,0-.839,1.188v5.5a1.261,1.261,0,0,0,.839,1.188l4.394,1.563,1.228,2.965-2,4.212a1.261,1.261,0,0,0,.248,1.433l3.886,3.886a1.261,1.261,0,0,0,1.433.247l4.212-2,2.964,1.228,1.563,4.394a1.261,1.261,0,0,0,1.189.839h5.5a1.261,1.261,0,0,0,1.188-.839l1.563-4.394,2.965-1.228,4.212,2a1.261,1.261,0,0,0,1.433-.247l3.887-3.886a1.261,1.261,0,0,0,.248-1.434l-2-4.212,1.443-3.483Z" transform="translate(-64.367 -229.723)" fill="#007bcc"/>
      <path id="Path_713" data-name="Path 713" d="M277.932,247.762l-3.887-3.886a1.261,1.261,0,0,0-1.433-.247l-4.719,2.243,1.083,2.278,3.915-1.86,2.628,2.628-1.861,3.915a1.261,1.261,0,0,0-.026,1.025l1.431,3.455,2.33-.966-1.216-2.937,2-4.212a1.261,1.261,0,0,0-.248-1.435Z" transform="translate(-228.178 -205.114)" fill="#007bcc"/>
      <path id="Path_714" data-name="Path 714" d="M156.768,310.7a11.352,11.352,0,1,0-11.352-11.352A11.352,11.352,0,0,0,156.768,310.7Zm0-20.181a8.829,8.829,0,1,1-8.829,8.829A8.829,8.829,0,0,1,156.768,290.523Z" transform="translate(-125.012 -242.592)" fill="#007bcc"/>
      <path id="Path_715" data-name="Path 715" d="M325.875,42.767,321.48,41.2l-1.228-2.965,2-4.212a1.261,1.261,0,0,0-.247-1.434l-3.886-3.886a1.261,1.261,0,0,0-1.434-.247l-4.212,2-2.965-1.228-1.563-4.394A1.261,1.261,0,0,0,306.758,24h-5.5a1.261,1.261,0,0,0-1.188.839l-1.563,4.394-3.483,1.443.965,2.33,4-1.657a1.261,1.261,0,0,0,.705-.743l1.452-4.084h3.717l1.453,4.084a1.26,1.26,0,0,0,.706.743l4,1.658a1.261,1.261,0,0,0,1.025-.026l3.915-1.86,2.628,2.628-1.861,3.915a1.261,1.261,0,0,0-.026,1.025l1.657,4a1.261,1.261,0,0,0,.742.7l4.083,1.452v3.717l-4.083,1.453a1.261,1.261,0,0,0-.743.706l-1.658,4a1.261,1.261,0,0,0,.026,1.025l1.861,3.915-3.257,3.258,1.785,1.783,3.886-3.886a1.261,1.261,0,0,0,.247-1.433l-2-4.212L321.48,52.2l4.394-1.563a1.262,1.262,0,0,0,.839-1.189v-5.5a1.261,1.261,0,0,0-.839-1.188Z" transform="translate(-251.034 -20.216)" fill="#007bcc"/>
      <path id="Path_716" data-name="Path 716" d="M295.762,116.162a8.8,8.8,0,0,1-8.188-5.518l-2.339.946a11.352,11.352,0,1,0,4.849-14.09l1.264,2.184a8.829,8.829,0,1,1,4.413,16.478Z" transform="translate(-242.787 -80.845)" fill="#007bcc"/>
      <path id="Path_717" data-name="Path 717" d="M339.352,256.829h-4.217v-5.045a3.784,3.784,0,1,0-7.568,0v10.83l-.847-.847a3.937,3.937,0,0,0-5.568,5.568l6.415,6.415v2h-1.261a1.261,1.261,0,0,0-1.261,1.261v11.352h2.523V278.272H342.7v10.091h2.523V277.01a1.261,1.261,0,0,0-1.261-1.261H342.7v-2l2.586-2.586a8.4,8.4,0,0,0-5.937-14.334Zm4.153,12.55-2.955,2.955a1.261,1.261,0,0,0-.369.892v2.523H330.09v-2.523a1.261,1.261,0,0,0-.369-.892l-6.784-6.784a1.414,1.414,0,0,1,1.982-2.018l.018.018,3,3a1.261,1.261,0,0,0,2.153-.892V251.784a1.261,1.261,0,1,1,2.523,0v6.307a1.261,1.261,0,0,0,1.261,1.261h5.478a5.874,5.874,0,0,1,4.153,10.028Z" transform="translate(-272.069 -208.899)" fill="#007bcc"/>
      <path id="Path_718" data-name="Path 718" d="M432,456h2.523v2.523H432Z" transform="translate(-366.411 -384.104)" fill="#007bcc"/>
    </g>
  </g>
</svg>
