<svg xmlns="http://www.w3.org/2000/svg" width="283" height="274" viewBox="0 0 283 274">
  <g id="Group_74760" data-name="Group 74760" transform="translate(-332 -4769)">
    <g id="Outline" transform="translate(380 4825)">
      <path id="Path_710" data-name="Path 710" d="M36.443,83.481,45.03,79.4l6.045,2.5,3.186,8.959a2.571,2.571,0,0,0,2.421,1.71H67.889a2.571,2.571,0,0,0,2.423-1.71L73.5,81.9l6.045-2.5,8.588,4.082a2.573,2.573,0,0,0,2.922-.5l7.924-7.923a2.572,2.572,0,0,0,.5-2.922L95.4,63.544,97.9,57.5l8.959-3.186a2.571,2.571,0,0,0,1.71-2.424V40.682a2.571,2.571,0,0,0-1.71-2.423L97.9,35.074l-2.5-6.045,4.082-8.588a2.571,2.571,0,0,0-.5-2.923L91.054,9.595a2.572,2.572,0,0,0-2.922-.5l-8.588,4.082-6.045-2.5L70.312,1.71A2.571,2.571,0,0,0,67.889,0H56.682A2.571,2.571,0,0,0,54.26,1.71l-3.186,8.959-6.045,2.5L36.443,9.09a2.571,2.571,0,0,0-2.925.5l-7.923,7.923a2.571,2.571,0,0,0-.5,2.925l4.082,8.588-2.5,6.045L17.71,38.26A2.571,2.571,0,0,0,16,40.682V51.889a2.571,2.571,0,0,0,1.71,2.423L26.669,57.5l2.5,6.045L25.09,72.13a2.571,2.571,0,0,0,.5,2.923l7.923,7.923a2.573,2.573,0,0,0,2.925.5ZM34.361,62.63l-3.379-8.157a2.57,2.57,0,0,0-1.515-1.438l-8.325-2.961V42.5l8.325-2.961A2.569,2.569,0,0,0,30.982,38.1l3.38-8.156a2.571,2.571,0,0,0-.053-2.089l-3.793-7.981,5.357-5.357,7.981,3.793a2.568,2.568,0,0,0,2.089.053L54.1,14.981a2.57,2.57,0,0,0,1.437-1.514L58.5,5.143h7.577l2.961,8.325a2.569,2.569,0,0,0,1.439,1.514l8.156,3.38a2.568,2.568,0,0,0,2.089-.053L88.7,14.515l5.358,5.358-3.793,7.981a2.571,2.571,0,0,0-.053,2.089L93.591,38.1A2.569,2.569,0,0,0,95.1,39.536l8.325,2.961v7.577L95.1,53.036a2.569,2.569,0,0,0-1.514,1.439L90.21,62.63a2.571,2.571,0,0,0,.053,2.089L94.056,72.7,88.7,78.058l-7.981-3.793a2.568,2.568,0,0,0-2.089-.053l-8.157,3.379A2.569,2.569,0,0,0,69.036,79.1l-2.961,8.325H58.5L55.536,79.1A2.569,2.569,0,0,0,54.1,77.59l-8.156-3.38a2.568,2.568,0,0,0-2.089.053l-7.981,3.793L30.514,72.7l3.793-7.981a2.571,2.571,0,0,0,.054-2.088Z" fill="#007bcc"/>
      <path id="Path_711" data-name="Path 711" d="M111.143,118.286A23.143,23.143,0,1,0,88,95.143,23.143,23.143,0,0,0,111.143,118.286Zm0-41.143a18,18,0,1,1-18,18A18,18,0,0,1,111.143,77.143Z" transform="translate(-48.857 -48.857)" fill="#007bcc"/>
      <path id="Path_712" data-name="Path 712" d="M151.006,308.964l-3.378,8.157a2.571,2.571,0,0,0,.053,2.089l3.793,7.981-5.358,5.358-7.981-3.793a2.571,2.571,0,0,0-2.089-.053l-8.154,3.377a2.571,2.571,0,0,0-1.439,1.514l-2.961,8.326h-7.576l-2.961-8.325a2.57,2.57,0,0,0-1.439-1.514l-8.157-3.379a2.568,2.568,0,0,0-2.089.053l-7.981,3.793-5.358-5.358,3.793-7.981a2.571,2.571,0,0,0,.053-2.089L88.4,308.962a2.571,2.571,0,0,0-1.512-1.436l-8.325-2.96v-7.578l8.325-2.961a2.571,2.571,0,0,0,1.514-1.439l3.378-8.157a2.571,2.571,0,0,0-.053-2.089l-4.573-9.62-4.644,2.211,4.082,8.588-2.5,6.045-8.959,3.186a2.571,2.571,0,0,0-1.71,2.423v11.207a2.571,2.571,0,0,0,1.71,2.423l8.959,3.186,2.5,6.045-4.082,8.588a2.572,2.572,0,0,0,.5,2.922l7.923,7.923a2.571,2.571,0,0,0,2.922.5l8.588-4.082,6.043,2.5,3.186,8.959a2.571,2.571,0,0,0,2.424,1.71h11.207a2.571,2.571,0,0,0,2.423-1.71l3.186-8.959,6.045-2.5,8.587,4.082a2.571,2.571,0,0,0,2.922-.5l7.924-7.923a2.572,2.572,0,0,0,.5-2.922l-4.082-8.588,2.941-7.1Z" transform="translate(-38.964 -185.061)" fill="#007bcc"/>
      <path id="Path_713" data-name="Path 713" d="M288.359,252.183l-7.924-7.923a2.571,2.571,0,0,0-2.922-.5l-9.619,4.573,2.208,4.645,7.981-3.793,5.358,5.358-3.793,7.981a2.571,2.571,0,0,0-.053,2.089l2.917,7.043,4.751-1.968-2.479-5.987,4.082-8.588a2.571,2.571,0,0,0-.506-2.926Z" transform="translate(-170.927 -165.236)" fill="#007bcc"/>
      <path id="Path_714" data-name="Path 714" d="M168.559,334.286a23.143,23.143,0,1,0-23.143-23.143A23.143,23.143,0,0,0,168.559,334.286Zm0-41.143a18,18,0,1,1-18,18A18,18,0,0,1,168.559,293.143Z" transform="translate(-87.818 -195.429)" fill="#007bcc"/>
      <path id="Path_715" data-name="Path 715" d="M357.916,62.26l-8.959-3.186-2.5-6.045,4.082-8.588a2.572,2.572,0,0,0-.5-2.923l-7.923-7.923a2.572,2.572,0,0,0-2.922-.5L330.6,37.172l-6.045-2.5-3.186-8.959A2.571,2.571,0,0,0,318.943,24H307.736a2.571,2.571,0,0,0-2.423,1.71l-3.186,8.959-7.1,2.942L297,42.361l8.157-3.379a2.571,2.571,0,0,0,1.438-1.515l2.96-8.325h7.577l2.962,8.325a2.569,2.569,0,0,0,1.439,1.514l8.156,3.379a2.571,2.571,0,0,0,2.089-.053l7.981-3.793,5.358,5.358-3.793,7.981a2.571,2.571,0,0,0-.053,2.089l3.379,8.157a2.571,2.571,0,0,0,1.512,1.436l8.325,2.96v7.577l-8.325,2.962a2.572,2.572,0,0,0-1.514,1.439l-3.379,8.156a2.571,2.571,0,0,0,.053,2.089L345.11,96.7l-6.641,6.641,3.639,3.635,7.923-7.923a2.572,2.572,0,0,0,.5-2.922l-4.082-8.588,2.5-6.045,8.959-3.186a2.572,2.572,0,0,0,1.71-2.424V64.682a2.571,2.571,0,0,0-1.71-2.423Z" transform="translate(-189.34 -16.286)" fill="#007bcc"/>
      <path id="Path_716" data-name="Path 716" d="M306.7,137.128A17.933,17.933,0,0,1,290,125.878l-4.767,1.929a23.144,23.144,0,1,0,9.886-28.724l2.576,4.451a18,18,0,1,1,9,33.594Z" transform="translate(-182.696 -65.128)" fill="#007bcc"/>
      <path id="Path_717" data-name="Path 717" d="M359.453,266h-8.6V255.714a7.714,7.714,0,1,0-15.429,0v22.078l-1.727-1.727a8.027,8.027,0,1,0-11.351,11.351l13.078,13.077v4.078h-2.571a2.572,2.572,0,0,0-2.571,2.571v23.143h5.143V309.714h30.857v20.571h5.143V307.143a2.572,2.572,0,0,0-2.571-2.571h-2.571v-4.078l5.271-5.271A17.118,17.118,0,0,0,359.453,266Zm8.467,25.586-6.025,6.025a2.571,2.571,0,0,0-.753,1.818v5.143H340.571v-5.143a2.572,2.572,0,0,0-.753-1.818l-13.831-13.831a2.883,2.883,0,1,1,4.041-4.113l.036.036,6.117,6.116a2.571,2.571,0,0,0,4.39-1.818V255.714a2.571,2.571,0,1,1,5.143,0v12.857a2.572,2.572,0,0,0,2.571,2.571h11.168a11.975,11.975,0,0,1,8.467,20.443Z" transform="translate(-206.285 -168.286)" fill="#007bcc"/>
      <path id="Path_718" data-name="Path 718" d="M432,456h5.143v5.143H432Z" transform="translate(-282.286 -309.429)" fill="#007bcc"/>
    </g>
    <path id="Path_719" data-name="Path 719" d="M141.5,0C219.648,0,283,61.337,283,137S219.648,274,141.5,274,0,212.663,0,137,63.352,0,141.5,0Z" transform="translate(332 4769)" fill="#007bcc" opacity="0.1"/>
  </g>
</svg>
